<svg width="237" height="42" viewBox="0 0 237 42" fill="none" xmlns="http://www.w3.org/2000/svg">
<circle cx="20" cy="22" r="20" fill="#F5B042"/>
<path d="M62.176 14.368V16.384H56.944V31H54.616V16.384H49.384V14.368H62.176ZM66.7223 31H64.4903V18.52H66.7223V31ZM65.5943 16.264C65.1943 16.264 64.8503 16.136 64.5623 15.88C64.2903 15.608 64.1543 15.248 64.1543 14.8C64.1543 14.352 64.2903 14 64.5623 13.744C64.8503 13.472 65.1943 13.336 65.5943 13.336C65.9943 13.336 66.3303 13.472 66.6023 13.744C66.8903 14 67.0343 14.352 67.0343 14.8C67.0343 15.248 66.8903 15.608 66.6023 15.88C66.3303 16.136 65.9943 16.264 65.5943 16.264ZM70.5606 18.88C71.0726 18.752 71.7446 18.616 72.5766 18.472C73.4246 18.328 74.4006 18.256 75.5046 18.256C76.3046 18.256 76.9766 18.368 77.5206 18.592C78.0646 18.8 78.5206 19.112 78.8886 19.528C79.0006 19.448 79.1766 19.336 79.4166 19.192C79.6566 19.048 79.9526 18.912 80.3046 18.784C80.6566 18.64 81.0486 18.52 81.4806 18.424C81.9126 18.312 82.3766 18.256 82.8726 18.256C83.8326 18.256 84.6166 18.4 85.2246 18.688C85.8326 18.96 86.3046 19.352 86.6406 19.864C86.9926 20.376 87.2246 20.984 87.3366 21.688C87.4646 22.392 87.5286 23.16 87.5286 23.992V31H85.2966V24.472C85.2966 23.736 85.2566 23.104 85.1766 22.576C85.1126 22.048 84.9766 21.608 84.7686 21.256C84.5766 20.904 84.3046 20.648 83.9526 20.488C83.6166 20.312 83.1766 20.224 82.6326 20.224C81.8806 20.224 81.2566 20.328 80.7606 20.536C80.2806 20.728 79.9526 20.904 79.7766 21.064C79.9046 21.48 80.0006 21.936 80.0646 22.432C80.1286 22.928 80.1606 23.448 80.1606 23.992V31H77.9286V24.472C77.9286 23.736 77.8886 23.104 77.8086 22.576C77.7286 22.048 77.5846 21.608 77.3766 21.256C77.1846 20.904 76.9126 20.648 76.5606 20.488C76.2246 20.312 75.7926 20.224 75.2646 20.224C75.0406 20.224 74.8006 20.232 74.5446 20.248C74.2886 20.264 74.0406 20.288 73.8006 20.32C73.5766 20.336 73.3686 20.36 73.1766 20.392C72.9846 20.424 72.8566 20.448 72.7926 20.464V31H70.5606V18.88ZM89.9365 22.768H95.8645V24.856H89.9365V22.768ZM102.628 29.392C103.156 29.392 103.62 29.384 104.02 29.368C104.436 29.336 104.78 29.288 105.052 29.224V25.504C104.892 25.424 104.628 25.36 104.26 25.312C103.908 25.248 103.476 25.216 102.964 25.216C102.628 25.216 102.268 25.24 101.884 25.288C101.516 25.336 101.172 25.44 100.852 25.6C100.548 25.744 100.292 25.952 100.084 26.224C99.8764 26.48 99.7724 26.824 99.7724 27.256C99.7724 28.056 100.028 28.616 100.54 28.936C101.052 29.24 101.748 29.392 102.628 29.392ZM102.436 18.208C103.332 18.208 104.084 18.328 104.692 18.568C105.316 18.792 105.812 19.12 106.18 19.552C106.564 19.968 106.836 20.472 106.996 21.064C107.156 21.64 107.236 22.28 107.236 22.984V30.784C107.044 30.816 106.772 30.864 106.42 30.928C106.084 30.976 105.7 31.024 105.268 31.072C104.836 31.12 104.364 31.16 103.852 31.192C103.356 31.24 102.86 31.264 102.364 31.264C101.66 31.264 101.012 31.192 100.42 31.048C99.8284 30.904 99.3164 30.68 98.8844 30.376C98.4524 30.056 98.1164 29.64 97.8764 29.128C97.6364 28.616 97.5164 28 97.5164 27.28C97.5164 26.592 97.6524 26 97.9244 25.504C98.2124 25.008 98.5964 24.608 99.0764 24.304C99.5564 24 100.116 23.776 100.756 23.632C101.396 23.488 102.068 23.416 102.772 23.416C102.996 23.416 103.228 23.432 103.468 23.464C103.708 23.48 103.932 23.512 104.14 23.56C104.364 23.592 104.556 23.624 104.716 23.656C104.876 23.688 104.988 23.712 105.052 23.728V23.104C105.052 22.736 105.012 22.376 104.932 22.024C104.852 21.656 104.708 21.336 104.5 21.064C104.292 20.776 104.004 20.552 103.636 20.392C103.284 20.216 102.82 20.128 102.244 20.128C101.508 20.128 100.86 20.184 100.3 20.296C99.7564 20.392 99.3484 20.496 99.0764 20.608L98.8124 18.76C99.1004 18.632 99.5804 18.512 100.252 18.4C100.924 18.272 101.652 18.208 102.436 18.208ZM110.943 18.88C111.455 18.752 112.135 18.616 112.983 18.472C113.831 18.328 114.807 18.256 115.911 18.256C116.903 18.256 117.727 18.4 118.383 18.688C119.039 18.96 119.559 19.352 119.943 19.864C120.343 20.36 120.623 20.96 120.783 21.664C120.943 22.368 121.023 23.144 121.023 23.992V31H118.791V24.472C118.791 23.704 118.735 23.048 118.623 22.504C118.527 21.96 118.359 21.52 118.119 21.184C117.879 20.848 117.559 20.608 117.159 20.464C116.759 20.304 116.263 20.224 115.671 20.224C115.431 20.224 115.183 20.232 114.927 20.248C114.671 20.264 114.423 20.288 114.183 20.32C113.959 20.336 113.751 20.36 113.559 20.392C113.383 20.424 113.255 20.448 113.175 20.464V31H110.943V18.88ZM132.789 21.16C132.517 20.936 132.125 20.72 131.613 20.512C131.101 20.304 130.541 20.2 129.933 20.2C129.293 20.2 128.741 20.32 128.277 20.56C127.829 20.784 127.461 21.104 127.173 21.52C126.885 21.92 126.677 22.4 126.549 22.96C126.421 23.52 126.357 24.12 126.357 24.76C126.357 26.216 126.717 27.344 127.437 28.144C128.157 28.928 129.117 29.32 130.317 29.32C130.925 29.32 131.429 29.296 131.829 29.248C132.245 29.184 132.565 29.12 132.789 29.056V21.16ZM132.789 12.76L135.021 12.376V30.64C134.509 30.784 133.853 30.928 133.053 31.072C132.253 31.216 131.333 31.288 130.293 31.288C129.333 31.288 128.469 31.136 127.701 30.832C126.933 30.528 126.277 30.096 125.733 29.536C125.189 28.976 124.765 28.296 124.461 27.496C124.173 26.68 124.029 25.768 124.029 24.76C124.029 23.8 124.149 22.92 124.389 22.12C124.645 21.32 125.013 20.632 125.493 20.056C125.973 19.48 126.557 19.032 127.245 18.712C127.949 18.392 128.749 18.232 129.645 18.232C130.365 18.232 130.997 18.328 131.541 18.52C132.101 18.712 132.517 18.896 132.789 19.072V12.76ZM137.562 22.768H143.49V24.856H137.562V22.768ZM146.173 31V14.368H156.325V16.36H148.501V21.304H155.461V23.248H148.501V29.008H156.925V31H146.173ZM164.348 18.256C164.54 18.256 164.756 18.272 164.996 18.304C165.252 18.32 165.5 18.352 165.74 18.4C165.98 18.432 166.196 18.472 166.388 18.52C166.596 18.552 166.748 18.584 166.844 18.616L166.46 20.56C166.284 20.496 165.988 20.424 165.572 20.344C165.172 20.248 164.652 20.2 164.012 20.2C163.596 20.2 163.18 20.248 162.764 20.344C162.364 20.424 162.1 20.48 161.972 20.512V31H159.74V19.048C160.268 18.856 160.924 18.68 161.708 18.52C162.492 18.344 163.372 18.256 164.348 18.256ZM171.23 31H168.998V18.52H171.23V31ZM170.102 16.264C169.702 16.264 169.358 16.136 169.07 15.88C168.798 15.608 168.662 15.248 168.662 14.8C168.662 14.352 168.798 14 169.07 13.744C169.358 13.472 169.702 13.336 170.102 13.336C170.502 13.336 170.838 13.472 171.11 13.744C171.398 14 171.542 14.352 171.542 14.8C171.542 15.248 171.398 15.608 171.11 15.88C170.838 16.136 170.502 16.264 170.102 16.264ZM180.492 31.288C179.484 31.288 178.596 31.128 177.828 30.808C177.076 30.488 176.436 30.04 175.908 29.464C175.396 28.888 175.012 28.208 174.756 27.424C174.5 26.624 174.372 25.744 174.372 24.784C174.372 23.824 174.508 22.944 174.78 22.144C175.068 21.344 175.468 20.656 175.98 20.08C176.492 19.488 177.116 19.032 177.852 18.712C178.604 18.376 179.436 18.208 180.348 18.208C180.908 18.208 181.468 18.256 182.028 18.352C182.588 18.448 183.124 18.6 183.636 18.808L183.132 20.704C182.796 20.544 182.404 20.416 181.956 20.32C181.524 20.224 181.06 20.176 180.564 20.176C179.316 20.176 178.356 20.568 177.684 21.352C177.028 22.136 176.7 23.28 176.7 24.784C176.7 25.456 176.772 26.072 176.916 26.632C177.076 27.192 177.316 27.672 177.636 28.072C177.972 28.472 178.396 28.784 178.908 29.008C179.42 29.216 180.044 29.32 180.78 29.32C181.372 29.32 181.908 29.264 182.388 29.152C182.868 29.04 183.244 28.92 183.516 28.792L183.828 30.664C183.7 30.744 183.516 30.824 183.276 30.904C183.036 30.968 182.764 31.024 182.46 31.072C182.156 31.136 181.828 31.184 181.476 31.216C181.14 31.264 180.812 31.288 180.492 31.288ZM189.099 29.704C189.099 30.136 188.955 30.512 188.667 30.832C188.379 31.152 187.987 31.312 187.491 31.312C186.995 31.312 186.603 31.152 186.315 30.832C186.027 30.512 185.883 30.136 185.883 29.704C185.883 29.272 186.027 28.896 186.315 28.576C186.603 28.256 186.995 28.096 187.491 28.096C187.987 28.096 188.379 28.256 188.667 28.576C188.955 28.896 189.099 29.272 189.099 29.704ZM197.789 31.288C196.781 31.288 195.893 31.128 195.125 30.808C194.373 30.488 193.733 30.04 193.205 29.464C192.693 28.888 192.309 28.208 192.053 27.424C191.797 26.624 191.669 25.744 191.669 24.784C191.669 23.824 191.805 22.944 192.077 22.144C192.365 21.344 192.765 20.656 193.277 20.08C193.789 19.488 194.413 19.032 195.149 18.712C195.901 18.376 196.733 18.208 197.645 18.208C198.205 18.208 198.765 18.256 199.325 18.352C199.885 18.448 200.421 18.6 200.933 18.808L200.429 20.704C200.093 20.544 199.701 20.416 199.253 20.32C198.821 20.224 198.357 20.176 197.861 20.176C196.613 20.176 195.653 20.568 194.981 21.352C194.325 22.136 193.997 23.28 193.997 24.784C193.997 25.456 194.069 26.072 194.213 26.632C194.373 27.192 194.613 27.672 194.933 28.072C195.269 28.472 195.693 28.784 196.205 29.008C196.717 29.216 197.341 29.32 198.077 29.32C198.669 29.32 199.205 29.264 199.685 29.152C200.165 29.04 200.541 28.92 200.813 28.792L201.125 30.664C200.997 30.744 200.813 30.824 200.573 30.904C200.333 30.968 200.061 31.024 199.757 31.072C199.453 31.136 199.125 31.184 198.773 31.216C198.437 31.264 198.109 31.288 197.789 31.288ZM214.233 24.76C214.233 25.752 214.089 26.648 213.801 27.448C213.513 28.248 213.105 28.936 212.577 29.512C212.065 30.088 211.449 30.536 210.729 30.856C210.009 31.16 209.225 31.312 208.377 31.312C207.529 31.312 206.745 31.16 206.025 30.856C205.305 30.536 204.681 30.088 204.153 29.512C203.641 28.936 203.241 28.248 202.953 27.448C202.665 26.648 202.521 25.752 202.521 24.76C202.521 23.784 202.665 22.896 202.953 22.096C203.241 21.28 203.641 20.584 204.153 20.008C204.681 19.432 205.305 18.992 206.025 18.688C206.745 18.368 207.529 18.208 208.377 18.208C209.225 18.208 210.009 18.368 210.729 18.688C211.449 18.992 212.065 19.432 212.577 20.008C213.105 20.584 213.513 21.28 213.801 22.096C214.089 22.896 214.233 23.784 214.233 24.76ZM211.905 24.76C211.905 23.352 211.585 22.24 210.945 21.424C210.321 20.592 209.465 20.176 208.377 20.176C207.289 20.176 206.425 20.592 205.785 21.424C205.161 22.24 204.849 23.352 204.849 24.76C204.849 26.168 205.161 27.288 205.785 28.12C206.425 28.936 207.289 29.344 208.377 29.344C209.465 29.344 210.321 28.936 210.945 28.12C211.585 27.288 211.905 26.168 211.905 24.76ZM217.373 18.88C217.885 18.752 218.557 18.616 219.389 18.472C220.237 18.328 221.213 18.256 222.317 18.256C223.117 18.256 223.789 18.368 224.333 18.592C224.877 18.8 225.333 19.112 225.701 19.528C225.813 19.448 225.989 19.336 226.229 19.192C226.469 19.048 226.765 18.912 227.117 18.784C227.469 18.64 227.861 18.52 228.293 18.424C228.725 18.312 229.189 18.256 229.685 18.256C230.645 18.256 231.429 18.4 232.037 18.688C232.645 18.96 233.117 19.352 233.453 19.864C233.805 20.376 234.037 20.984 234.149 21.688C234.277 22.392 234.341 23.16 234.341 23.992V31H232.109V24.472C232.109 23.736 232.069 23.104 231.989 22.576C231.925 22.048 231.789 21.608 231.581 21.256C231.389 20.904 231.117 20.648 230.765 20.488C230.429 20.312 229.989 20.224 229.445 20.224C228.693 20.224 228.069 20.328 227.573 20.536C227.093 20.728 226.765 20.904 226.589 21.064C226.717 21.48 226.813 21.936 226.877 22.432C226.941 22.928 226.973 23.448 226.973 23.992V31H224.741V24.472C224.741 23.736 224.701 23.104 224.621 22.576C224.541 22.048 224.397 21.608 224.189 21.256C223.997 20.904 223.725 20.648 223.373 20.488C223.037 20.312 222.605 20.224 222.077 20.224C221.853 20.224 221.613 20.232 221.357 20.248C221.101 20.264 220.853 20.288 220.613 20.32C220.389 20.336 220.181 20.36 219.989 20.392C219.797 20.424 219.669 20.448 219.605 20.464V31H217.373V18.88Z" fill="#745420"/>
<path d="M19.98 16.14V17.82H15.62V30H13.68V17.82H9.32V16.14H19.98ZM22.0286 30V16.14H30.4886V17.8H23.9686V21.92H29.7686V23.54H23.9686V28.34H30.9886V30H22.0286Z" fill="white"/>
</svg>
