<svg width="777" height="265" viewBox="0 0 777 265" fill="none" xmlns="http://www.w3.org/2000/svg">
<g filter="url(#filter0_d_6_32)">
<circle cx="710.5" cy="128.5" r="62.5" fill="#4287F5"/>
<path d="M453 128.5C453 163.018 425.018 191 390.5 191C355.982 191 328 163.018 328 128.5C328 93.9822 355.982 66 390.5 66C425.018 66 453 93.9822 453 128.5Z" fill="#4287F5"/>
<circle cx="554.5" cy="62.5" r="62.5" fill="#4287F5"/>
<path d="M129 128.5C129 163.018 101.018 191 66.5 191C31.9822 191 4 163.018 4 128.5C4 93.9822 31.9822 66 66.5 66C101.018 66 129 93.9822 129 128.5Z" fill="#4287F5"/>
<circle cx="226.5" cy="62.5" r="62.5" fill="#4287F5"/>
<rect x="237.5" y="41" width="175" height="30" transform="rotate(30 237.5 41)" fill="#4287F5"/>
<rect x="565.5" y="41" width="175" height="30" transform="rotate(30 565.5 41)" fill="#4287F5"/>
<rect x="389" y="128.5" width="175" height="30" transform="rotate(-30 389 128.5)" fill="#4287F5"/>
<rect x="61" y="128.5" width="175" height="30" transform="rotate(-30 61 128.5)" fill="#4287F5"/>
</g>
<path d="M58.3243 198.824C57.6629 199.549 56.9163 200.36 56.0843 201.256C55.2523 202.131 54.3776 203.037 53.4603 203.976C52.5643 204.893 51.6683 205.8 50.7723 206.696C49.8763 207.592 49.0336 208.424 48.2443 209.192C49.1616 209.832 50.1323 210.621 51.1563 211.56C52.1803 212.499 53.1829 213.501 54.1643 214.568C55.1456 215.635 56.0629 216.723 56.9163 217.832C57.7909 218.941 58.5163 219.997 59.0923 221H55.4443C54.8043 219.997 54.0683 218.995 53.2363 217.992C52.4043 216.968 51.5189 215.997 50.5803 215.08C49.6629 214.141 48.7243 213.277 47.7643 212.488C46.8256 211.699 45.9083 211.027 45.0123 210.472V221H41.9083V198.824H45.0123V208.616C45.7589 207.912 46.5803 207.123 47.4763 206.248C48.3723 205.352 49.2576 204.456 50.1323 203.56C51.0069 202.664 51.8283 201.811 52.5963 201C53.3856 200.168 54.0469 199.443 54.5803 198.824H58.3243ZM67.4733 218.856C68.1773 218.856 68.7959 218.845 69.3293 218.824C69.8839 218.781 70.3426 218.717 70.7053 218.632V213.672C70.4919 213.565 70.1399 213.48 69.6493 213.416C69.1799 213.331 68.6039 213.288 67.9213 213.288C67.4733 213.288 66.9933 213.32 66.4813 213.384C65.9906 213.448 65.5319 213.587 65.1053 213.8C64.6999 213.992 64.3586 214.269 64.0813 214.632C63.8039 214.973 63.6653 215.432 63.6653 216.008C63.6653 217.075 64.0066 217.821 64.6893 218.248C65.3719 218.653 66.2999 218.856 67.4733 218.856ZM67.2173 203.944C68.4119 203.944 69.4146 204.104 70.2253 204.424C71.0573 204.723 71.7186 205.16 72.2093 205.736C72.7213 206.291 73.0839 206.963 73.2973 207.752C73.5106 208.52 73.6173 209.373 73.6173 210.312V220.712C73.3613 220.755 72.9986 220.819 72.5293 220.904C72.0813 220.968 71.5693 221.032 70.9933 221.096C70.4173 221.16 69.7879 221.213 69.1053 221.256C68.4439 221.32 67.7826 221.352 67.1213 221.352C66.1826 221.352 65.3186 221.256 64.5293 221.064C63.7399 220.872 63.0573 220.573 62.4813 220.168C61.9053 219.741 61.4573 219.187 61.1373 218.504C60.8173 217.821 60.6573 217 60.6573 216.04C60.6573 215.123 60.8386 214.333 61.2013 213.672C61.5853 213.011 62.0973 212.477 62.7373 212.072C63.3773 211.667 64.1239 211.368 64.9773 211.176C65.8306 210.984 66.7266 210.888 67.6653 210.888C67.9639 210.888 68.2733 210.909 68.5933 210.952C68.9133 210.973 69.2119 211.016 69.4893 211.08C69.7879 211.123 70.0439 211.165 70.2573 211.208C70.4706 211.251 70.6199 211.283 70.7053 211.304V210.472C70.7053 209.981 70.6519 209.501 70.5453 209.032C70.4386 208.541 70.2466 208.115 69.9693 207.752C69.6919 207.368 69.3079 207.069 68.8173 206.856C68.3479 206.621 67.7293 206.504 66.9613 206.504C65.9799 206.504 65.1159 206.579 64.3693 206.728C63.6439 206.856 63.0999 206.995 62.7373 207.144L62.3853 204.68C62.7693 204.509 63.4093 204.349 64.3053 204.2C65.2013 204.029 66.1719 203.944 67.2173 203.944ZM83.552 221.32C81.7173 221.277 80.416 220.883 79.648 220.136C78.88 219.389 78.496 218.227 78.496 216.648V196.68L81.472 196.168V216.168C81.472 216.659 81.5147 217.064 81.6 217.384C81.6853 217.704 81.824 217.96 82.016 218.152C82.208 218.344 82.464 218.493 82.784 218.6C83.104 218.685 83.4987 218.76 83.968 218.824L83.552 221.32ZM90.286 221H87.31V204.36H90.286V221ZM88.782 201.352C88.2487 201.352 87.79 201.181 87.406 200.84C87.0433 200.477 86.862 199.997 86.862 199.4C86.862 198.803 87.0433 198.333 87.406 197.992C87.79 197.629 88.2487 197.448 88.782 197.448C89.3153 197.448 89.7633 197.629 90.126 197.992C90.51 198.333 90.702 198.803 90.702 199.4C90.702 199.997 90.51 200.477 90.126 200.84C89.7633 201.181 89.3153 201.352 88.782 201.352Z" fill="#4287F5"/>
<path d="M363.99 221C363.627 220.04 363.286 219.101 362.966 218.184C362.646 217.245 362.315 216.296 361.974 215.336H351.926L349.91 221H346.678C347.531 218.653 348.331 216.488 349.078 214.504C349.825 212.499 350.55 210.6 351.254 208.808C351.979 207.016 352.694 205.309 353.398 203.688C354.102 202.045 354.838 200.424 355.606 198.824H358.454C359.222 200.424 359.958 202.045 360.662 203.688C361.366 205.309 362.07 207.016 362.774 208.808C363.499 210.6 364.235 212.499 364.982 214.504C365.729 216.488 366.529 218.653 367.382 221H363.99ZM361.078 212.776C360.395 210.92 359.713 209.128 359.03 207.4C358.369 205.651 357.675 203.976 356.95 202.376C356.203 203.976 355.489 205.651 354.806 207.4C354.145 209.128 353.483 210.92 352.822 212.776H361.078ZM377.026 221.384C375.682 221.384 374.498 221.171 373.474 220.744C372.472 220.317 371.618 219.72 370.914 218.952C370.232 218.184 369.72 217.277 369.378 216.232C369.037 215.165 368.866 213.992 368.866 212.712C368.866 211.432 369.048 210.259 369.41 209.192C369.794 208.125 370.328 207.208 371.01 206.44C371.693 205.651 372.525 205.043 373.506 204.616C374.509 204.168 375.618 203.944 376.834 203.944C377.581 203.944 378.328 204.008 379.074 204.136C379.821 204.264 380.536 204.467 381.218 204.744L380.546 207.272C380.098 207.059 379.576 206.888 378.978 206.76C378.402 206.632 377.784 206.568 377.122 206.568C375.458 206.568 374.178 207.091 373.282 208.136C372.408 209.181 371.97 210.707 371.97 212.712C371.97 213.608 372.066 214.429 372.258 215.176C372.472 215.923 372.792 216.563 373.218 217.096C373.666 217.629 374.232 218.045 374.914 218.344C375.597 218.621 376.429 218.76 377.41 218.76C378.2 218.76 378.914 218.685 379.554 218.536C380.194 218.387 380.696 218.227 381.058 218.056L381.474 220.552C381.304 220.659 381.058 220.765 380.738 220.872C380.418 220.957 380.056 221.032 379.65 221.096C379.245 221.181 378.808 221.245 378.338 221.288C377.89 221.352 377.453 221.384 377.026 221.384ZM387.453 204.36H393.757V206.856H387.453V214.536C387.453 215.368 387.517 216.061 387.645 216.616C387.773 217.149 387.965 217.576 388.221 217.896C388.477 218.195 388.797 218.408 389.181 218.536C389.565 218.664 390.013 218.728 390.525 218.728C391.421 218.728 392.136 218.632 392.669 218.44C393.224 218.227 393.608 218.077 393.821 217.992L394.397 220.456C394.099 220.605 393.576 220.787 392.829 221C392.083 221.235 391.229 221.352 390.269 221.352C389.139 221.352 388.2 221.213 387.453 220.936C386.728 220.637 386.141 220.2 385.693 219.624C385.245 219.048 384.925 218.344 384.733 217.512C384.563 216.659 384.477 215.677 384.477 214.568V199.72L387.453 199.208V204.36ZM400.52 221H397.544V204.36H400.52V221ZM399.016 201.352C398.483 201.352 398.024 201.181 397.64 200.84C397.278 200.477 397.096 199.997 397.096 199.4C397.096 198.803 397.278 198.333 397.64 197.992C398.024 197.629 398.483 197.448 399.016 197.448C399.55 197.448 399.998 197.629 400.36 197.992C400.744 198.333 400.936 198.803 400.936 199.4C400.936 199.997 400.744 200.477 400.36 200.84C399.998 201.181 399.55 201.352 399.016 201.352ZM418.63 204.36C417.798 207.475 416.817 210.461 415.686 213.32C414.577 216.179 413.499 218.739 412.454 221H409.766C408.721 218.739 407.633 216.179 406.502 213.32C405.393 210.461 404.422 207.475 403.59 204.36H406.79C407.046 205.405 407.345 206.525 407.686 207.72C408.049 208.893 408.422 210.067 408.806 211.24C409.211 212.392 409.617 213.512 410.022 214.6C410.427 215.688 410.811 216.659 411.174 217.512C411.537 216.659 411.921 215.688 412.326 214.6C412.731 213.512 413.126 212.392 413.51 211.24C413.915 210.067 414.289 208.893 414.63 207.72C414.993 206.525 415.302 205.405 415.558 204.36H418.63ZM420.335 212.712C420.335 211.24 420.548 209.96 420.975 208.872C421.402 207.763 421.967 206.845 422.671 206.12C423.375 205.395 424.186 204.851 425.103 204.488C426.02 204.125 426.959 203.944 427.919 203.944C430.159 203.944 431.876 204.648 433.071 206.056C434.266 207.443 434.863 209.565 434.863 212.424C434.863 212.552 434.863 212.723 434.863 212.936C434.863 213.128 434.852 213.309 434.831 213.48H423.439C423.567 215.208 424.068 216.52 424.943 217.416C425.818 218.312 427.183 218.76 429.039 218.76C430.084 218.76 430.959 218.675 431.663 218.504C432.388 218.312 432.932 218.131 433.295 217.96L433.711 220.456C433.348 220.648 432.708 220.851 431.791 221.064C430.895 221.277 429.871 221.384 428.719 221.384C427.268 221.384 426.01 221.171 424.943 220.744C423.898 220.296 423.034 219.688 422.351 218.92C421.668 218.152 421.156 217.245 420.815 216.2C420.495 215.133 420.335 213.971 420.335 212.712ZM431.759 211.08C431.78 209.736 431.439 208.637 430.735 207.784C430.052 206.909 429.103 206.472 427.887 206.472C427.204 206.472 426.596 206.611 426.063 206.888C425.551 207.144 425.114 207.485 424.751 207.912C424.388 208.339 424.1 208.829 423.887 209.384C423.695 209.939 423.567 210.504 423.503 211.08H431.759ZM344.335 246.896C344.335 248.816 344.036 250.491 343.439 251.92C342.842 253.328 341.999 254.501 340.911 255.44C339.823 256.357 338.522 257.051 337.007 257.52C335.492 257.968 333.828 258.192 332.015 258.192C331.119 258.192 330.127 258.149 329.039 258.064C327.972 258 327.002 257.861 326.127 257.648V236.144C327.002 235.931 327.972 235.792 329.039 235.728C330.127 235.643 331.119 235.6 332.015 235.6C333.828 235.6 335.492 235.835 337.007 236.304C338.522 236.752 339.823 237.445 340.911 238.384C341.999 239.301 342.842 240.475 343.439 241.904C344.036 243.312 344.335 244.976 344.335 246.896ZM332.271 255.472C335.215 255.472 337.412 254.725 338.863 253.232C340.314 251.717 341.039 249.605 341.039 246.896C341.039 244.187 340.314 242.085 338.863 240.592C337.412 239.077 335.215 238.32 332.271 238.32C331.396 238.32 330.714 238.331 330.223 238.352C329.754 238.373 329.423 238.395 329.231 238.416V255.376C329.423 255.397 329.754 255.419 330.223 255.44C330.714 255.461 331.396 255.472 332.271 255.472ZM351.724 258H348.748V241.36H351.724V258ZM350.22 238.352C349.686 238.352 349.228 238.181 348.844 237.84C348.481 237.477 348.299 236.997 348.299 236.4C348.299 235.803 348.481 235.333 348.844 234.992C349.228 234.629 349.686 234.448 350.22 234.448C350.753 234.448 351.201 234.629 351.564 234.992C351.948 235.333 352.14 235.803 352.14 236.4C352.14 236.997 351.948 237.477 351.564 237.84C351.201 238.181 350.753 238.352 350.22 238.352ZM362.985 241.008C363.241 241.008 363.529 241.029 363.849 241.072C364.191 241.093 364.521 241.136 364.841 241.2C365.161 241.243 365.449 241.296 365.705 241.36C365.983 241.403 366.185 241.445 366.313 241.488L365.801 244.08C365.567 243.995 365.172 243.899 364.617 243.792C364.084 243.664 363.391 243.6 362.537 243.6C361.983 243.6 361.428 243.664 360.873 243.792C360.34 243.899 359.988 243.973 359.817 244.016V258H356.841V242.064C357.545 241.808 358.42 241.573 359.465 241.36C360.511 241.125 361.684 241.008 362.985 241.008ZM368.257 249.712C368.257 248.24 368.47 246.96 368.897 245.872C369.324 244.763 369.889 243.845 370.593 243.12C371.297 242.395 372.108 241.851 373.025 241.488C373.942 241.125 374.881 240.944 375.841 240.944C378.081 240.944 379.798 241.648 380.993 243.056C382.188 244.443 382.785 246.565 382.785 249.424C382.785 249.552 382.785 249.723 382.785 249.936C382.785 250.128 382.774 250.309 382.753 250.48H371.361C371.489 252.208 371.99 253.52 372.865 254.416C373.74 255.312 375.105 255.76 376.961 255.76C378.006 255.76 378.881 255.675 379.585 255.504C380.31 255.312 380.854 255.131 381.217 254.96L381.633 257.456C381.27 257.648 380.63 257.851 379.713 258.064C378.817 258.277 377.793 258.384 376.641 258.384C375.19 258.384 373.932 258.171 372.865 257.744C371.82 257.296 370.956 256.688 370.273 255.92C369.59 255.152 369.078 254.245 368.737 253.2C368.417 252.133 368.257 250.971 368.257 249.712ZM379.681 248.08C379.702 246.736 379.361 245.637 378.657 244.784C377.974 243.909 377.025 243.472 375.809 243.472C375.126 243.472 374.518 243.611 373.985 243.888C373.473 244.144 373.036 244.485 372.673 244.912C372.31 245.339 372.022 245.829 371.809 246.384C371.617 246.939 371.489 247.504 371.425 248.08H379.681ZM394.292 258.384C392.948 258.384 391.764 258.171 390.74 257.744C389.737 257.317 388.884 256.72 388.18 255.952C387.497 255.184 386.985 254.277 386.644 253.232C386.303 252.165 386.132 250.992 386.132 249.712C386.132 248.432 386.313 247.259 386.676 246.192C387.06 245.125 387.593 244.208 388.276 243.44C388.959 242.651 389.791 242.043 390.772 241.616C391.775 241.168 392.884 240.944 394.1 240.944C394.847 240.944 395.593 241.008 396.34 241.136C397.087 241.264 397.801 241.467 398.484 241.744L397.812 244.272C397.364 244.059 396.841 243.888 396.244 243.76C395.668 243.632 395.049 243.568 394.388 243.568C392.724 243.568 391.444 244.091 390.548 245.136C389.673 246.181 389.236 247.707 389.236 249.712C389.236 250.608 389.332 251.429 389.524 252.176C389.737 252.923 390.057 253.563 390.484 254.096C390.932 254.629 391.497 255.045 392.18 255.344C392.863 255.621 393.695 255.76 394.676 255.76C395.465 255.76 396.18 255.685 396.82 255.536C397.46 255.387 397.961 255.227 398.324 255.056L398.74 257.552C398.569 257.659 398.324 257.765 398.004 257.872C397.684 257.957 397.321 258.032 396.916 258.096C396.511 258.181 396.073 258.245 395.604 258.288C395.156 258.352 394.719 258.384 394.292 258.384ZM404.719 241.36H411.023V243.856H404.719V251.536C404.719 252.368 404.783 253.061 404.911 253.616C405.039 254.149 405.231 254.576 405.487 254.896C405.743 255.195 406.063 255.408 406.447 255.536C406.831 255.664 407.279 255.728 407.791 255.728C408.687 255.728 409.402 255.632 409.935 255.44C410.49 255.227 410.874 255.077 411.087 254.992L411.663 257.456C411.364 257.605 410.842 257.787 410.095 258C409.348 258.235 408.495 258.352 407.535 258.352C406.404 258.352 405.466 258.213 404.719 257.936C403.994 257.637 403.407 257.2 402.959 256.624C402.511 256.048 402.191 255.344 401.999 254.512C401.828 253.659 401.743 252.677 401.743 251.568V236.72L404.719 236.208V241.36ZM429.061 249.68C429.061 251.003 428.869 252.197 428.485 253.264C428.101 254.331 427.557 255.248 426.853 256.016C426.17 256.784 425.349 257.381 424.389 257.808C423.429 258.213 422.383 258.416 421.253 258.416C420.122 258.416 419.077 258.213 418.117 257.808C417.157 257.381 416.325 256.784 415.621 256.016C414.938 255.248 414.405 254.331 414.021 253.264C413.637 252.197 413.445 251.003 413.445 249.68C413.445 248.379 413.637 247.195 414.021 246.128C414.405 245.04 414.938 244.112 415.621 243.344C416.325 242.576 417.157 241.989 418.117 241.584C419.077 241.157 420.122 240.944 421.253 240.944C422.383 240.944 423.429 241.157 424.389 241.584C425.349 241.989 426.17 242.576 426.853 243.344C427.557 244.112 428.101 245.04 428.485 246.128C428.869 247.195 429.061 248.379 429.061 249.68ZM425.957 249.68C425.957 247.803 425.53 246.32 424.677 245.232C423.845 244.123 422.703 243.568 421.253 243.568C419.802 243.568 418.65 244.123 417.797 245.232C416.965 246.32 416.549 247.803 416.549 249.68C416.549 251.557 416.965 253.051 417.797 254.16C418.65 255.248 419.802 255.792 421.253 255.792C422.703 255.792 423.845 255.248 424.677 254.16C425.53 253.051 425.957 251.557 425.957 249.68ZM439.392 241.008C439.648 241.008 439.936 241.029 440.256 241.072C440.597 241.093 440.928 241.136 441.248 241.2C441.568 241.243 441.856 241.296 442.112 241.36C442.389 241.403 442.592 241.445 442.72 241.488L442.208 244.08C441.973 243.995 441.578 243.899 441.024 243.792C440.49 243.664 439.797 243.6 438.944 243.6C438.389 243.6 437.834 243.664 437.28 243.792C436.746 243.899 436.394 243.973 436.224 244.016V258H433.248V242.064C433.952 241.808 434.826 241.573 435.872 241.36C436.917 241.125 438.09 241.008 439.392 241.008ZM444.327 261.104C444.561 261.211 444.86 261.307 445.223 261.392C445.607 261.499 445.98 261.552 446.343 261.552C447.516 261.552 448.433 261.285 449.095 260.752C449.756 260.24 450.353 259.397 450.887 258.224C449.543 255.664 448.284 252.955 447.111 250.096C445.959 247.216 444.999 244.304 444.231 241.36H447.431C447.665 242.32 447.943 243.355 448.263 244.464C448.604 245.573 448.977 246.715 449.383 247.888C449.788 249.061 450.225 250.235 450.695 251.408C451.164 252.581 451.655 253.712 452.167 254.8C452.977 252.56 453.681 250.341 454.279 248.144C454.876 245.947 455.441 243.685 455.975 241.36H459.047C458.279 244.496 457.425 247.515 456.487 250.416C455.548 253.296 454.535 255.995 453.447 258.512C453.02 259.472 452.572 260.293 452.103 260.976C451.655 261.68 451.153 262.256 450.599 262.704C450.044 263.152 449.415 263.483 448.711 263.696C448.028 263.909 447.249 264.016 446.375 264.016C446.14 264.016 445.895 263.995 445.639 263.952C445.383 263.931 445.127 263.888 444.871 263.824C444.636 263.781 444.412 263.728 444.199 263.664C444.007 263.6 443.868 263.547 443.783 263.504L444.327 261.104Z" fill="#4287F5"/>
<path d="M706.554 210.088H709.658V220.456C709.402 220.541 709.028 220.637 708.538 220.744C708.068 220.851 707.514 220.957 706.874 221.064C706.255 221.171 705.572 221.256 704.826 221.32C704.079 221.405 703.322 221.448 702.554 221.448C700.996 221.448 699.578 221.192 698.298 220.68C697.018 220.168 695.919 219.421 695.002 218.44C694.084 217.459 693.37 216.253 692.858 214.824C692.367 213.395 692.122 211.752 692.122 209.896C692.122 208.04 692.399 206.397 692.954 204.968C693.53 203.517 694.298 202.301 695.258 201.32C696.218 200.339 697.338 199.592 698.618 199.08C699.919 198.568 701.306 198.312 702.778 198.312C703.78 198.312 704.666 198.376 705.434 198.504C706.223 198.632 706.895 198.781 707.45 198.952C708.004 199.123 708.452 199.293 708.794 199.464C709.156 199.635 709.402 199.763 709.53 199.848L708.538 202.44C707.919 202.035 707.098 201.704 706.074 201.448C705.05 201.171 704.004 201.032 702.938 201.032C701.807 201.032 700.772 201.235 699.834 201.64C698.916 202.045 698.127 202.632 697.466 203.4C696.826 204.168 696.324 205.107 695.962 206.216C695.599 207.304 695.418 208.531 695.418 209.896C695.418 211.219 695.567 212.424 695.866 213.512C696.186 214.6 696.655 215.539 697.274 216.328C697.914 217.096 698.692 217.693 699.61 218.12C700.548 218.547 701.647 218.76 702.906 218.76C703.802 218.76 704.559 218.717 705.178 218.632C705.818 218.525 706.276 218.429 706.554 218.344V210.088ZM717.302 221H714.326V204.36H717.302V221ZM715.798 201.352C715.264 201.352 714.806 201.181 714.422 200.84C714.059 200.477 713.878 199.997 713.878 199.4C713.878 198.803 714.059 198.333 714.422 197.992C714.806 197.629 715.264 197.448 715.798 197.448C716.331 197.448 716.779 197.629 717.142 197.992C717.526 198.333 717.718 198.803 717.718 199.4C717.718 199.997 717.526 200.477 717.142 200.84C716.779 201.181 716.331 201.352 715.798 201.352ZM725.203 204.36H731.507V206.856H725.203V214.536C725.203 215.368 725.267 216.061 725.395 216.616C725.523 217.149 725.715 217.576 725.971 217.896C726.227 218.195 726.547 218.408 726.931 218.536C727.315 218.664 727.763 218.728 728.275 218.728C729.171 218.728 729.886 218.632 730.419 218.44C730.974 218.227 731.358 218.077 731.571 217.992L732.147 220.456C731.849 220.605 731.326 220.787 730.579 221C729.833 221.235 728.979 221.352 728.019 221.352C726.889 221.352 725.95 221.213 725.203 220.936C724.478 220.637 723.891 220.2 723.443 219.624C722.995 219.048 722.675 218.344 722.483 217.512C722.313 216.659 722.227 215.677 722.227 214.568V199.72L725.203 199.208V204.36Z" fill="#4287F5"/>
<path d="M198.866 148.72C199.207 149.147 199.634 149.712 200.146 150.416C200.679 151.099 201.223 151.867 201.778 152.72C202.332 153.552 202.876 154.427 203.41 155.344C203.964 156.261 204.434 157.147 204.818 158H201.426C200.999 157.189 200.53 156.368 200.018 155.536C199.527 154.704 199.026 153.915 198.514 153.168C198.002 152.4 197.49 151.685 196.978 151.024C196.487 150.363 196.039 149.787 195.634 149.296C195.356 149.317 195.068 149.328 194.77 149.328C194.492 149.328 194.204 149.328 193.906 149.328H191.122V158H188.018V136.144C188.892 135.931 189.863 135.792 190.93 135.728C192.018 135.643 193.01 135.6 193.906 135.6C197.02 135.6 199.388 136.187 201.01 137.36C202.652 138.533 203.474 140.283 203.474 142.608C203.474 144.08 203.079 145.339 202.29 146.384C201.522 147.429 200.38 148.208 198.866 148.72ZM194.162 138.32C192.839 138.32 191.826 138.352 191.122 138.416V146.768H193.33C194.396 146.768 195.356 146.715 196.21 146.608C197.063 146.501 197.778 146.299 198.354 146C198.951 145.701 199.41 145.285 199.73 144.752C200.05 144.197 200.21 143.472 200.21 142.576C200.21 141.744 200.05 141.051 199.73 140.496C199.41 139.941 198.972 139.504 198.418 139.184C197.884 138.864 197.244 138.64 196.498 138.512C195.772 138.384 194.994 138.32 194.162 138.32ZM207.023 149.712C207.023 148.24 207.236 146.96 207.663 145.872C208.089 144.763 208.655 143.845 209.359 143.12C210.063 142.395 210.873 141.851 211.791 141.488C212.708 141.125 213.647 140.944 214.607 140.944C216.847 140.944 218.564 141.648 219.759 143.056C220.953 144.443 221.551 146.565 221.551 149.424C221.551 149.552 221.551 149.723 221.551 149.936C221.551 150.128 221.54 150.309 221.519 150.48H210.127C210.255 152.208 210.756 153.52 211.631 154.416C212.505 155.312 213.871 155.76 215.727 155.76C216.772 155.76 217.647 155.675 218.351 155.504C219.076 155.312 219.62 155.131 219.983 154.96L220.399 157.456C220.036 157.648 219.396 157.851 218.479 158.064C217.583 158.277 216.559 158.384 215.407 158.384C213.956 158.384 212.697 158.171 211.631 157.744C210.585 157.296 209.721 156.688 209.039 155.92C208.356 155.152 207.844 154.245 207.503 153.2C207.183 152.133 207.023 150.971 207.023 149.712ZM218.447 148.08C218.468 146.736 218.127 145.637 217.423 144.784C216.74 143.909 215.791 143.472 214.575 143.472C213.892 143.472 213.284 143.611 212.751 143.888C212.239 144.144 211.801 144.485 211.439 144.912C211.076 145.339 210.788 145.829 210.575 146.384C210.383 146.939 210.255 147.504 210.191 148.08H218.447ZM231.458 155.856C232.162 155.856 232.78 155.845 233.314 155.824C233.868 155.781 234.327 155.717 234.69 155.632V150.672C234.476 150.565 234.124 150.48 233.634 150.416C233.164 150.331 232.588 150.288 231.906 150.288C231.458 150.288 230.978 150.32 230.466 150.384C229.975 150.448 229.516 150.587 229.09 150.8C228.684 150.992 228.343 151.269 228.066 151.632C227.788 151.973 227.65 152.432 227.65 153.008C227.65 154.075 227.991 154.821 228.674 155.248C229.356 155.653 230.284 155.856 231.458 155.856ZM231.202 140.944C232.396 140.944 233.399 141.104 234.21 141.424C235.042 141.723 235.703 142.16 236.194 142.736C236.706 143.291 237.068 143.963 237.282 144.752C237.495 145.52 237.602 146.373 237.602 147.312V157.712C237.346 157.755 236.983 157.819 236.514 157.904C236.066 157.968 235.554 158.032 234.978 158.096C234.402 158.16 233.772 158.213 233.09 158.256C232.428 158.32 231.767 158.352 231.106 158.352C230.167 158.352 229.303 158.256 228.514 158.064C227.724 157.872 227.042 157.573 226.466 157.168C225.89 156.741 225.442 156.187 225.122 155.504C224.802 154.821 224.642 154 224.642 153.04C224.642 152.123 224.823 151.333 225.186 150.672C225.57 150.011 226.082 149.477 226.722 149.072C227.362 148.667 228.108 148.368 228.962 148.176C229.815 147.984 230.711 147.888 231.65 147.888C231.948 147.888 232.258 147.909 232.578 147.952C232.898 147.973 233.196 148.016 233.474 148.08C233.772 148.123 234.028 148.165 234.242 148.208C234.455 148.251 234.604 148.283 234.69 148.304V147.472C234.69 146.981 234.636 146.501 234.53 146.032C234.423 145.541 234.231 145.115 233.954 144.752C233.676 144.368 233.292 144.069 232.802 143.856C232.332 143.621 231.714 143.504 230.946 143.504C229.964 143.504 229.1 143.579 228.354 143.728C227.628 143.856 227.084 143.995 226.722 144.144L226.37 141.68C226.754 141.509 227.394 141.349 228.29 141.2C229.186 141.029 230.156 140.944 231.202 140.944ZM249.776 158.384C248.432 158.384 247.248 158.171 246.224 157.744C245.222 157.317 244.368 156.72 243.664 155.952C242.982 155.184 242.47 154.277 242.128 153.232C241.787 152.165 241.616 150.992 241.616 149.712C241.616 148.432 241.798 147.259 242.16 146.192C242.544 145.125 243.078 144.208 243.76 143.44C244.443 142.651 245.275 142.043 246.256 141.616C247.259 141.168 248.368 140.944 249.584 140.944C250.331 140.944 251.078 141.008 251.824 141.136C252.571 141.264 253.286 141.467 253.968 141.744L253.296 144.272C252.848 144.059 252.326 143.888 251.728 143.76C251.152 143.632 250.534 143.568 249.872 143.568C248.208 143.568 246.928 144.091 246.032 145.136C245.158 146.181 244.72 147.707 244.72 149.712C244.72 150.608 244.816 151.429 245.008 152.176C245.222 152.923 245.542 153.563 245.968 154.096C246.416 154.629 246.982 155.045 247.664 155.344C248.347 155.621 249.179 155.76 250.16 155.76C250.95 155.76 251.664 155.685 252.304 155.536C252.944 155.387 253.446 155.227 253.808 155.056L254.224 157.552C254.054 157.659 253.808 157.765 253.488 157.872C253.168 157.957 252.806 158.032 252.4 158.096C251.995 158.181 251.558 158.245 251.088 158.288C250.64 158.352 250.203 158.384 249.776 158.384ZM260.203 141.36H266.507V143.856H260.203V151.536C260.203 152.368 260.267 153.061 260.395 153.616C260.523 154.149 260.715 154.576 260.971 154.896C261.227 155.195 261.547 155.408 261.931 155.536C262.315 155.664 262.763 155.728 263.275 155.728C264.171 155.728 264.886 155.632 265.419 155.44C265.974 155.227 266.358 155.077 266.571 154.992L267.147 157.456C266.849 157.605 266.326 157.787 265.579 158C264.833 158.235 263.979 158.352 263.019 158.352C261.889 158.352 260.95 158.213 260.203 157.936C259.478 157.637 258.891 157.2 258.443 156.624C257.995 156.048 257.675 155.344 257.483 154.512C257.313 153.659 257.227 152.677 257.227 151.568V136.72L260.203 136.208V141.36Z" fill="#4287F5"/>
<path d="M485.015 135.6C488.13 135.6 490.519 136.197 492.183 137.392C493.868 138.565 494.711 140.325 494.711 142.672C494.711 143.952 494.476 145.051 494.007 145.968C493.559 146.864 492.898 147.6 492.023 148.176C491.17 148.731 490.124 149.136 488.887 149.392C487.65 149.648 486.252 149.776 484.695 149.776H482.231V158H479.127V136.144C480.002 135.931 480.972 135.792 482.039 135.728C483.127 135.643 484.119 135.6 485.015 135.6ZM485.271 138.32C483.948 138.32 482.935 138.352 482.231 138.416V147.12H484.567C485.634 147.12 486.594 147.056 487.447 146.928C488.3 146.779 489.015 146.544 489.591 146.224C490.188 145.883 490.647 145.424 490.967 144.848C491.287 144.272 491.447 143.536 491.447 142.64C491.447 141.787 491.276 141.083 490.935 140.528C490.615 139.973 490.167 139.536 489.591 139.216C489.036 138.875 488.386 138.64 487.639 138.512C486.892 138.384 486.103 138.32 485.271 138.32ZM496.445 149.712C496.445 148.24 496.658 146.96 497.085 145.872C497.511 144.763 498.077 143.845 498.781 143.12C499.485 142.395 500.295 141.851 501.213 141.488C502.13 141.125 503.069 140.944 504.029 140.944C506.269 140.944 507.986 141.648 509.181 143.056C510.375 144.443 510.972 146.565 510.972 149.424C510.972 149.552 510.972 149.723 510.972 149.936C510.972 150.128 510.962 150.309 510.941 150.48H499.549C499.677 152.208 500.178 153.52 501.053 154.416C501.927 155.312 503.293 155.76 505.149 155.76C506.194 155.76 507.069 155.675 507.773 155.504C508.498 155.312 509.042 155.131 509.405 154.96L509.821 157.456C509.458 157.648 508.818 157.851 507.901 158.064C507.005 158.277 505.981 158.384 504.829 158.384C503.378 158.384 502.119 158.171 501.053 157.744C500.007 157.296 499.143 156.688 498.461 155.92C497.778 155.152 497.266 154.245 496.924 153.2C496.605 152.133 496.445 150.971 496.445 149.712ZM507.869 148.08C507.89 146.736 507.549 145.637 506.845 144.784C506.162 143.909 505.213 143.472 503.997 143.472C503.314 143.472 502.706 143.611 502.173 143.888C501.661 144.144 501.223 144.485 500.861 144.912C500.498 145.339 500.21 145.829 499.997 146.384C499.805 146.939 499.677 147.504 499.613 148.08H507.869ZM515.248 141.84C515.93 141.669 516.837 141.488 517.968 141.296C519.098 141.104 520.4 141.008 521.872 141.008C523.194 141.008 524.293 141.2 525.168 141.584C526.042 141.947 526.736 142.469 527.248 143.152C527.781 143.813 528.154 144.613 528.368 145.552C528.581 146.491 528.688 147.525 528.688 148.656V158H525.712V149.296C525.712 148.272 525.637 147.397 525.488 146.672C525.36 145.947 525.136 145.36 524.816 144.912C524.496 144.464 524.069 144.144 523.536 143.952C523.002 143.739 522.341 143.632 521.552 143.632C521.232 143.632 520.901 143.643 520.56 143.664C520.218 143.685 519.888 143.717 519.568 143.76C519.269 143.781 518.992 143.813 518.736 143.856C518.501 143.899 518.33 143.931 518.224 143.952V158H515.248V141.84ZM536.407 141.36H542.711V143.856H536.407V151.536C536.407 152.368 536.471 153.061 536.599 153.616C536.727 154.149 536.919 154.576 537.175 154.896C537.431 155.195 537.751 155.408 538.135 155.536C538.519 155.664 538.967 155.728 539.479 155.728C540.375 155.728 541.089 155.632 541.623 155.44C542.177 155.227 542.561 155.077 542.775 154.992L543.351 157.456C543.052 157.605 542.529 157.787 541.783 158C541.036 158.235 540.183 158.352 539.223 158.352C538.092 158.352 537.153 158.213 536.407 157.936C535.681 157.637 535.095 157.2 534.647 156.624C534.199 156.048 533.879 155.344 533.687 154.512C533.516 153.659 533.431 152.677 533.431 151.568V136.72L536.407 136.208V141.36ZM545.257 149.712C545.257 148.24 545.47 146.96 545.897 145.872C546.324 144.763 546.889 143.845 547.593 143.12C548.297 142.395 549.108 141.851 550.025 141.488C550.942 141.125 551.881 140.944 552.841 140.944C555.081 140.944 556.798 141.648 557.993 143.056C559.188 144.443 559.785 146.565 559.785 149.424C559.785 149.552 559.785 149.723 559.785 149.936C559.785 150.128 559.774 150.309 559.753 150.48H548.361C548.489 152.208 548.99 153.52 549.865 154.416C550.74 155.312 552.105 155.76 553.961 155.76C555.006 155.76 555.881 155.675 556.585 155.504C557.31 155.312 557.854 155.131 558.217 154.96L558.633 157.456C558.27 157.648 557.63 157.851 556.713 158.064C555.817 158.277 554.793 158.384 553.641 158.384C552.19 158.384 550.932 158.171 549.865 157.744C548.82 157.296 547.956 156.688 547.273 155.92C546.59 155.152 546.078 154.245 545.737 153.2C545.417 152.133 545.257 150.971 545.257 149.712ZM556.681 148.08C556.702 146.736 556.361 145.637 555.657 144.784C554.974 143.909 554.025 143.472 552.809 143.472C552.126 143.472 551.518 143.611 550.985 143.888C550.473 144.144 550.036 144.485 549.673 144.912C549.31 145.339 549.022 145.829 548.809 146.384C548.617 146.939 548.489 147.504 548.425 148.08H556.681ZM567.932 155.856C569.148 155.856 570.044 155.696 570.62 155.376C571.217 155.056 571.516 154.544 571.516 153.84C571.516 153.115 571.228 152.539 570.652 152.112C570.076 151.685 569.127 151.205 567.804 150.672C567.164 150.416 566.545 150.16 565.948 149.904C565.372 149.627 564.871 149.307 564.444 148.944C564.017 148.581 563.676 148.144 563.42 147.632C563.164 147.12 563.036 146.491 563.036 145.744C563.036 144.272 563.58 143.109 564.668 142.256C565.756 141.381 567.239 140.944 569.116 140.944C569.585 140.944 570.055 140.976 570.524 141.04C570.993 141.083 571.431 141.147 571.836 141.232C572.241 141.296 572.593 141.371 572.892 141.456C573.212 141.541 573.457 141.616 573.628 141.68L573.084 144.24C572.764 144.069 572.263 143.899 571.58 143.728C570.897 143.536 570.076 143.44 569.116 143.44C568.284 143.44 567.559 143.611 566.94 143.952C566.321 144.272 566.012 144.784 566.012 145.488C566.012 145.851 566.076 146.171 566.204 146.448C566.353 146.725 566.567 146.981 566.844 147.216C567.143 147.429 567.505 147.632 567.932 147.824C568.359 148.016 568.871 148.219 569.468 148.432C570.257 148.731 570.961 149.029 571.58 149.328C572.199 149.605 572.721 149.936 573.148 150.32C573.596 150.704 573.937 151.173 574.172 151.728C574.407 152.261 574.524 152.923 574.524 153.712C574.524 155.248 573.948 156.411 572.796 157.2C571.665 157.989 570.044 158.384 567.932 158.384C566.46 158.384 565.308 158.256 564.476 158C563.644 157.765 563.079 157.584 562.78 157.456L563.324 154.896C563.665 155.024 564.209 155.216 564.956 155.472C565.703 155.728 566.695 155.856 567.932 155.856ZM581.125 141.36H587.429V143.856H581.125V151.536C581.125 152.368 581.189 153.061 581.317 153.616C581.445 154.149 581.637 154.576 581.893 154.896C582.149 155.195 582.469 155.408 582.853 155.536C583.237 155.664 583.685 155.728 584.197 155.728C585.093 155.728 585.808 155.632 586.341 155.44C586.896 155.227 587.28 155.077 587.493 154.992L588.069 157.456C587.771 157.605 587.248 157.787 586.501 158C585.755 158.235 584.901 158.352 583.941 158.352C582.811 158.352 581.872 158.213 581.125 157.936C580.4 157.637 579.813 157.2 579.365 156.624C578.917 156.048 578.597 155.344 578.405 154.512C578.235 153.659 578.149 152.677 578.149 151.568V136.72L581.125 136.208V141.36ZM594.192 158H591.216V141.36H594.192V158ZM592.688 138.352C592.155 138.352 591.696 138.181 591.312 137.84C590.95 137.477 590.768 136.997 590.768 136.4C590.768 135.803 590.95 135.333 591.312 134.992C591.696 134.629 592.155 134.448 592.688 134.448C593.222 134.448 593.67 134.629 594.032 134.992C594.416 135.333 594.608 135.803 594.608 136.4C594.608 136.997 594.416 137.477 594.032 137.84C593.67 138.181 593.222 138.352 592.688 138.352ZM599.31 141.84C599.993 141.669 600.899 141.488 602.03 141.296C603.161 141.104 604.462 141.008 605.934 141.008C607.257 141.008 608.355 141.2 609.23 141.584C610.105 141.947 610.798 142.469 611.31 143.152C611.843 143.813 612.217 144.613 612.43 145.552C612.643 146.491 612.75 147.525 612.75 148.656V158H609.774V149.296C609.774 148.272 609.699 147.397 609.55 146.672C609.422 145.947 609.198 145.36 608.878 144.912C608.558 144.464 608.131 144.144 607.598 143.952C607.065 143.739 606.403 143.632 605.614 143.632C605.294 143.632 604.963 143.643 604.622 143.664C604.281 143.685 603.95 143.717 603.63 143.76C603.331 143.781 603.054 143.813 602.798 143.856C602.563 143.899 602.393 143.931 602.286 143.952V158H599.31V141.84ZM628.117 156.336C627.861 156.507 627.36 156.731 626.613 157.008C625.888 157.264 625.034 157.392 624.053 157.392C623.05 157.392 622.101 157.232 621.205 156.912C620.33 156.592 619.562 156.101 618.901 155.44C618.24 154.757 617.717 153.915 617.333 152.912C616.949 151.909 616.757 150.715 616.757 149.328C616.757 148.112 616.938 147.003 617.301 146C617.664 144.976 618.186 144.101 618.869 143.376C619.573 142.629 620.426 142.053 621.429 141.648C622.432 141.221 623.562 141.008 624.821 141.008C626.208 141.008 627.413 141.115 628.437 141.328C629.482 141.52 630.357 141.701 631.061 141.872V156.72C631.061 159.28 630.4 161.136 629.077 162.288C627.754 163.44 625.749 164.016 623.061 164.016C622.016 164.016 621.024 163.931 620.085 163.76C619.168 163.589 618.368 163.387 617.685 163.152L618.229 160.56C618.826 160.795 619.552 160.997 620.405 161.168C621.28 161.36 622.186 161.456 623.125 161.456C624.896 161.456 626.165 161.104 626.933 160.4C627.722 159.696 628.117 158.576 628.117 157.04V156.336ZM628.085 143.984C627.786 143.899 627.381 143.824 626.869 143.76C626.378 143.675 625.706 143.632 624.853 143.632C623.253 143.632 622.016 144.155 621.141 145.2C620.288 146.245 619.861 147.632 619.861 149.36C619.861 150.32 619.978 151.141 620.213 151.824C620.469 152.507 620.8 153.072 621.205 153.52C621.632 153.968 622.112 154.299 622.645 154.512C623.2 154.725 623.765 154.832 624.341 154.832C625.13 154.832 625.856 154.725 626.517 154.512C627.178 154.277 627.701 154.011 628.085 153.712V143.984Z" fill="#4287F5"/>
<path d="M699.741 146.451C699.741 146.705 699.44 146.908 699.059 146.908C698.627 146.946 698.326 146.743 698.326 146.451C698.326 146.197 698.627 145.994 699.007 145.994C699.4 145.956 699.741 146.159 699.741 146.451ZM695.665 145.88C695.574 146.134 695.836 146.426 696.229 146.502C696.57 146.629 696.963 146.502 697.041 146.248C697.12 145.994 696.871 145.702 696.478 145.588C696.137 145.499 695.757 145.626 695.665 145.88ZM701.458 145.664C701.078 145.753 700.816 145.994 700.855 146.286C700.894 146.54 701.235 146.705 701.628 146.616C702.008 146.527 702.27 146.286 702.231 146.032C702.192 145.791 701.838 145.626 701.458 145.664ZM710.081 97.0156C691.904 97.0156 678 110.384 678 127.992C678 142.071 687.147 154.119 700.213 158.359C701.89 158.651 702.48 157.648 702.48 156.823C702.48 156.036 702.441 151.694 702.441 149.028C702.441 149.028 693.267 150.933 691.341 145.245C691.341 145.245 689.847 141.551 687.698 140.599C687.698 140.599 684.697 138.605 687.907 138.644C687.907 138.644 691.17 138.897 692.966 141.919C695.836 146.819 700.645 145.41 702.519 144.572C702.821 142.541 703.672 141.132 704.616 140.294C697.29 139.507 689.899 138.479 689.899 126.266C689.899 122.774 690.895 121.022 692.992 118.788C692.651 117.963 691.537 114.561 693.333 110.168C696.072 109.343 702.375 113.596 702.375 113.596C704.996 112.885 707.814 112.517 710.605 112.517C713.396 112.517 716.214 112.885 718.835 113.596C718.835 113.596 725.138 109.33 727.877 110.168C729.672 114.573 728.558 117.963 728.218 118.788C730.315 121.035 731.599 122.787 731.599 126.266C731.599 138.517 723.88 139.494 716.554 140.294C717.76 141.297 718.782 143.201 718.782 146.185C718.782 150.463 718.743 155.757 718.743 156.798C718.743 157.623 719.346 158.626 721.01 158.334C734.115 154.119 743 142.071 743 127.992C743 110.384 728.257 97.0156 710.081 97.0156ZM690.738 140.802C690.568 140.929 690.607 141.221 690.83 141.462C691.039 141.665 691.341 141.754 691.511 141.589C691.681 141.462 691.642 141.17 691.419 140.929C691.21 140.726 690.908 140.637 690.738 140.802ZM689.323 139.773C689.231 139.938 689.362 140.142 689.624 140.269C689.834 140.396 690.096 140.357 690.187 140.18C690.279 140.015 690.148 139.812 689.886 139.685C689.624 139.608 689.414 139.646 689.323 139.773ZM693.569 144.293C693.359 144.458 693.437 144.839 693.739 145.08C694.04 145.372 694.42 145.41 694.591 145.207C694.761 145.042 694.682 144.661 694.42 144.42C694.132 144.128 693.739 144.09 693.569 144.293ZM692.075 142.427C691.865 142.554 691.865 142.884 692.075 143.176C692.284 143.468 692.638 143.595 692.808 143.468C693.018 143.303 693.018 142.973 692.808 142.681C692.625 142.389 692.284 142.262 692.075 142.427Z" fill="white"/>
<path fill-rule="evenodd" clip-rule="evenodd" d="M28.2483 93.1218C28.2483 93.1218 51.1232 91.6451 61.1733 98.9758C61.1733 98.9758 59.0078 108.211 65.6399 110.259H68.5831C68.5831 110.259 72.2038 111.353 74.1325 112.876V111.924C74.1325 111.924 74.6745 113.448 76.3664 114.161L76.2309 112.923C76.2309 112.923 77.7201 115.351 78.7346 115.875L78.5319 114.209C78.5319 114.209 80.3593 116.97 80.7658 117.303L82.0171 117.207C82.0171 117.207 82.863 119.019 83.405 120.159C83.405 120.159 84.1496 121.278 83.6759 121.399C83.6759 121.399 83.4556 121.42 83.7431 121.754C83.7431 121.754 85.0792 123.872 86.9573 124.158C86.9573 124.158 85.2995 125.751 85.1817 126.159C85.1817 126.159 83.557 123.467 81.4421 122.181C81.4421 122.181 79.7337 121.23 79.683 120.111L79.6488 118.779C79.6488 118.779 72.8471 114.066 69.2099 113.066C69.2099 113.066 66.2149 112.519 64.6926 113.329C64.6926 113.329 59.357 115.621 59.2898 124.189C59.2898 124.189 59.3349 133.486 66.2149 134.597C66.2149 134.597 70.2982 134.883 71.3127 134.946C71.3127 134.946 89.1912 135.487 92 152.384C92 152.384 89.3938 141.008 78.837 138.676C78.837 138.676 88.9885 148.007 88.9885 163C88.9885 163 86.6533 139.009 71.2234 137.438C71.2234 137.438 67.2305 137.345 66.1477 137.297C66.1477 137.297 58.1949 136.914 57.3831 125.824C57.3831 125.824 56.6384 115.351 62.6284 111.686C62.6284 111.686 60.0906 104.402 59.8537 100.499C59.8537 100.499 52.477 94.5489 28.2483 93.1218Z" fill="white"/>
<path d="M28.2483 93.1218C28.2483 93.1218 51.1232 91.6451 61.1733 98.9758C61.1733 98.9758 59.0078 108.211 65.6399 110.259H68.5831C68.5831 110.259 72.2038 111.353 74.1325 112.876V111.924C74.1325 111.924 74.6745 113.448 76.3664 114.161L76.2309 112.923C76.2309 112.923 77.7201 115.351 78.7346 115.875L78.5319 114.209C78.5319 114.209 80.3593 116.97 80.7658 117.303L82.0171 117.207C82.0171 117.207 82.863 119.019 83.405 120.159C83.405 120.159 84.1496 121.278 83.6759 121.399C83.6759 121.399 83.4556 121.42 83.7431 121.754C83.7431 121.754 85.0792 123.872 86.9573 124.158C86.9573 124.158 85.2995 125.751 85.1817 126.159C85.1817 126.159 83.557 123.467 81.4421 122.181C81.4421 122.181 79.7337 121.23 79.683 120.111L79.6488 118.779C79.6488 118.779 72.8471 114.067 69.2099 113.066C69.2099 113.066 66.2149 112.519 64.6926 113.329C64.6926 113.329 59.357 115.621 59.2898 124.189C59.2898 124.189 59.3349 133.487 66.2149 134.597C66.2149 134.597 70.2982 134.883 71.3127 134.946C71.3127 134.946 89.1912 135.487 92 152.384C92 152.384 89.3938 141.008 78.837 138.676C78.837 138.676 88.9885 148.007 88.9885 163C88.9885 163 86.6533 139.009 71.2234 137.438C71.2234 137.438 67.2305 137.345 66.1477 137.297C66.1477 137.297 58.1949 136.914 57.3831 125.824C57.3831 125.824 56.6385 115.351 62.6284 111.686C62.6284 111.686 60.0906 104.402 59.8537 100.499C59.8537 100.499 52.477 94.5489 28.2483 93.1218Z" stroke="white" stroke-width="0.288"/>
<path fill-rule="evenodd" clip-rule="evenodd" d="M25 105.592C25 105.592 41.8177 99.9753 59.5828 101.168L59.8868 102.879C59.8868 102.879 44.2201 101.119 25 105.592Z" fill="white" stroke="white" stroke-width="0.288"/>
<path fill-rule="evenodd" clip-rule="evenodd" d="M60.4629 106.021L60.0564 104.165C60.0564 104.165 45.7094 105.307 30.2112 118.827C30.2112 118.827 46.3857 106.021 60.4629 106.021Z" fill="white" stroke="white" stroke-width="0.288"/>
<path fill-rule="evenodd" clip-rule="evenodd" d="M82.2715 119.516L82.2539 120.04C82.2539 120.04 82.6097 120.612 82.982 120.804C82.982 120.804 82.44 119.635 82.2715 119.516Z" fill="white" stroke="white" stroke-width="0.288"/>
<g clip-path="url(#clip0_6_32)">
<path d="M354.136 102.903L382.632 99.0222L382.644 126.508L354.162 126.671L354.136 102.903V102.903ZM382.618 129.675L382.64 157.185L354.158 153.269L354.157 129.491L382.618 129.675H382.618ZM386.073 98.5142L423.855 93V126.159L386.073 126.458V98.5145V98.5142ZM423.864 129.934L423.855 162.943L386.072 157.611L386.019 129.872L423.864 129.934Z" fill="white"/>
</g>
<path d="M226.5 69.1353C230.199 69.1353 233.198 66.1368 233.198 62.438C233.198 58.7392 230.199 55.7407 226.5 55.7407C222.801 55.7407 219.803 58.7392 219.803 62.438C219.803 66.1368 222.801 69.1353 226.5 69.1353Z" fill="white"/>
<path fill-rule="evenodd" clip-rule="evenodd" d="M226.5 48.821C235.492 48.821 243.846 50.1113 250.144 52.2796C257.733 54.8922 262.399 58.8522 262.399 62.438C262.399 66.1747 257.454 70.3817 249.305 73.0817C243.144 75.1229 235.036 76.1885 226.5 76.1885C217.749 76.1885 209.462 75.1883 203.231 73.0593C195.349 70.365 190.601 66.1035 190.601 62.438C190.601 58.8813 195.056 54.9519 202.538 52.3433C208.86 50.1392 217.419 48.821 226.499 48.821H226.5Z" stroke="white" stroke-width="2.73408"/>
<path fill-rule="evenodd" clip-rule="evenodd" d="M214.646 55.6688C219.139 47.8793 224.429 41.2876 229.454 36.9147C235.508 31.646 241.27 29.5826 244.376 31.3738C247.613 33.2405 248.787 39.6259 247.055 48.034C245.747 54.391 242.618 61.9463 238.354 69.3406C233.982 76.9218 228.976 83.6011 224.019 87.9334C217.747 93.416 211.684 95.4001 208.508 93.5689C205.427 91.7933 204.249 85.9701 205.727 78.1853C206.976 71.6077 210.11 63.5343 214.645 55.6686L214.646 55.6688Z" stroke="white" stroke-width="2.73408"/>
<path fill-rule="evenodd" clip-rule="evenodd" d="M214.658 69.3605C210.153 61.5799 207.086 53.7027 205.805 47.1655C204.264 39.289 205.354 33.2668 208.457 31.4704C211.691 29.5982 217.809 31.77 224.229 37.4699C229.082 41.7793 234.066 48.2616 238.343 55.649C242.727 63.2229 246.014 70.896 247.292 77.3537C248.91 85.5256 247.6 91.7696 244.428 93.606C241.35 95.3879 235.717 93.5013 229.711 88.3327C224.636 83.966 219.207 77.2185 214.658 69.3604V69.3605Z" stroke="white" stroke-width="2.73408"/>
<path d="M556 32.4C543.991 32.4 533.77 38.268 529.794 46.4984C529.559 46.4492 529.329 46.4 529.121 46.4C526.961 46.4 525.2 48.243 525.2 50.5016C525.2 51.125 525.342 51.743 525.605 52.3008C525.342 52.8586 525.2 53.4711 525.2 54.1C525.2 54.7289 525.342 55.3414 525.605 55.8992C525.342 56.457 525.2 57.0695 525.2 57.6984C525.2 59.6125 526.463 61.2094 528.159 61.6633C528.06 62.1609 528 62.675 528 63.2C528 65.6883 529.137 67.9141 530.948 69.4563C531.254 69.7133 531.888 70.7906 532.348 71.7367C532.255 72.1414 532.2 72.5516 532.2 72.9563C532.2 74.7938 532.916 76.6641 534.054 78.2445C536.356 86.3055 539.577 88.6352 541.262 89.8C543.509 91.3531 545.686 91.9656 545.686 94C545.686 96.3078 549.372 98.2 551.8 98.2H560.2C562.634 98.2 566.314 96.3078 566.314 94C566.314 91.9656 568.491 91.3531 570.738 89.8C572.423 88.6352 575.644 86.3055 577.941 78.25C579.084 76.6695 579.8 74.7992 579.8 72.9563C579.8 72.5516 579.745 72.1469 579.647 71.7367C580.112 70.7906 580.746 69.7133 581.052 69.4563C582.862 67.9141 584 65.6883 584 63.2C584 62.675 583.94 62.1609 583.841 61.6633C585.537 61.2094 586.8 59.6125 586.8 57.6984C586.8 57.075 586.658 56.457 586.395 55.8992C586.658 55.3414 586.8 54.7289 586.8 54.1C586.8 53.4711 586.658 52.8586 586.395 52.3008C586.658 51.743 586.8 51.1305 586.8 50.5016C586.8 48.243 585.039 46.4 582.879 46.4C582.671 46.4 582.441 46.4492 582.206 46.4984C578.23 38.268 568.009 32.4 556 32.4ZM556 35.2C566.845 35.2 576.087 40.3734 579.63 47.5977C579.264 47.8 578.887 48.0133 578.471 48.2594C578.302 48.3633 578.17 48.4453 578.181 48.4453C576.639 49.0305 575.6 50.5836 575.6 52.3008C575.6 52.9297 575.742 53.5422 576.005 54.1C575.742 54.6578 575.6 55.2703 575.6 55.8992C575.6 57.6219 576.639 59.175 578.088 59.7164C578.159 59.7547 578.296 59.8313 578.471 59.9406C579.346 60.4602 580.101 60.8758 580.784 61.193C581.052 61.8383 581.2 62.5109 581.2 63.2C581.2 64.7805 580.505 66.2461 579.237 67.318C578.892 67.6188 578.493 68.1711 578.099 68.7945C576.754 67.1758 574.785 66 572.8 66C574.588 66.9625 575.6 68.1656 575.6 69.4563C575.6 72.1633 573.407 74.3563 570.7 74.3563C568.573 74.3563 564.974 68.8328 562.355 68.8C561.72 69.6641 560.698 70.2328 559.544 70.2328C559.352 70.2328 558.937 70.375 558.844 70.4844C558.636 71.2172 557.318 71.5836 556 71.5836C554.687 71.5836 553.37 71.2172 553.162 70.4844C553.069 70.375 552.653 70.2328 552.462 70.2328C551.302 70.2328 550.285 69.6641 549.651 68.8C547.026 68.8328 543.427 74.3563 541.3 74.3563C538.598 74.3563 536.4 72.1633 536.4 69.4563C536.4 68.1656 537.74 66.8367 539.2 66C537.16 66 535.213 67.1648 533.884 68.7727C533.496 68.1602 533.108 67.6133 532.758 67.318C531.495 66.2461 530.8 64.7805 530.8 63.2C530.8 62.5109 530.948 61.8383 531.216 61.193C531.894 60.8758 532.648 60.4602 533.523 59.9406C533.704 59.8313 533.824 59.7492 533.813 59.7602C535.361 59.1695 536.4 57.6219 536.4 55.8992C536.4 55.2703 536.258 54.6578 535.995 54.1C536.258 53.5422 536.4 52.9297 536.4 52.3008C536.4 50.5781 535.361 49.0305 533.917 48.4891C533.841 48.4508 533.704 48.3688 533.529 48.2594C533.113 48.0133 532.736 47.8 532.37 47.5977C535.913 40.3734 545.155 35.2 556 35.2ZM544.8 45C542.968 45 541.043 45.525 539.2 47.1219C538.237 47.9641 538.325 49.3586 539.205 48.9266C540.764 48.1664 542.159 47.8 543.4 47.8C547.162 47.8 549.038 52.2078 549.612 52.7875C550.433 53.6078 551.762 53.6078 552.587 52.7875C553.408 51.9672 553.408 50.6383 552.587 49.8125C552.073 49.3039 549.612 45 544.8 45ZM567.2 45C562.387 45 559.927 49.3039 559.412 49.8125C558.592 50.6383 558.592 51.9672 559.412 52.7875C560.238 53.6078 561.567 53.6078 562.387 52.7875C562.962 52.2078 564.837 47.8 568.6 47.8C569.841 47.8 571.236 48.1664 572.795 48.9266C573.675 49.3586 573.762 47.9641 572.8 47.1219C570.957 45.525 569.032 45 567.2 45ZM529.11 49.2C529.384 49.2219 530.122 49.4898 532.096 50.6656C532.473 50.8898 532.741 51.032 532.823 51.0594C533.288 51.2344 533.6 51.7375 533.6 52.3008C533.6 52.7273 533.425 53.0227 533.272 53.1977L532.517 54.1L533.272 55.0023C533.425 55.1773 533.6 55.4781 533.6 55.8992C533.6 56.4625 533.288 56.9656 532.823 57.1406C532.741 57.168 532.473 57.3102 532.091 57.5344C530.122 58.7102 529.384 58.9781 529.121 59C528.503 59 528 58.4148 528 57.6984C528 57.2773 528.175 56.9766 528.328 56.8016L529.083 55.8992L528.328 54.9969C528.175 54.8219 528 54.5211 528 54.1C528 53.6789 528.175 53.3781 528.328 53.2031L529.083 52.3008L528.328 51.3984C528.175 51.2234 528 50.9227 528 50.5016C528 49.7852 528.503 49.2 529.11 49.2ZM582.879 49.2C583.497 49.2 584 49.7852 584 50.5016C584 50.9227 583.825 51.2234 583.672 51.3984L582.923 52.3008L583.672 53.2031C583.825 53.3781 584 53.6789 584 54.1C584 54.5211 583.825 54.8219 583.672 54.9969L582.923 55.8992L583.672 56.7961C583.825 56.9766 584 57.2773 584 57.6984C584 58.4148 583.497 59 582.89 59C582.622 58.9836 581.878 58.7102 579.909 57.5344C579.532 57.3102 579.264 57.168 579.182 57.1406C578.717 56.9656 578.4 56.4625 578.4 55.8992C578.4 55.4727 578.575 55.1773 578.728 54.9969L579.477 54.1L578.728 53.2031C578.575 53.0227 578.4 52.7219 578.4 52.3008C578.4 51.7375 578.712 51.2398 579.171 51.0594C579.259 51.032 579.527 50.8898 579.904 50.6656C581.878 49.4898 582.616 49.2219 582.879 49.2ZM545.5 54.8055C543.395 54.8055 540.6 55.9922 540.6 58.8086C540.6 61.6031 543.258 59.8367 545.363 59.8367C547.469 59.8367 550.4 61.4391 550.4 59.2789C550.4 57.1133 547.605 54.8055 545.5 54.8055ZM566.5 54.8055C564.395 54.8055 561.6 57.1133 561.6 59.2789C561.6 61.4391 564.531 59.8367 566.637 59.8367C568.742 59.8367 571.4 61.6031 571.4 58.8086C571.4 55.9922 568.605 54.8055 566.5 54.8055ZM549.066 72.032C549.809 72.5078 550.657 72.8305 551.537 72.9617C552.533 73.875 554.086 74.3836 556 74.3836C557.92 74.3836 559.467 73.875 560.462 72.9617C561.348 72.8305 562.191 72.5078 562.934 72.032C563.612 72.5352 564.482 73.3391 565.023 73.8477C566.855 75.5484 568.589 77.1563 570.7 77.1563C573.227 77.1563 575.469 75.9367 576.874 74.05C576.377 76.3469 574.402 78.6219 572.204 79.2563C569.677 79.9781 568.551 80 563 80H549C543.449 80 542.323 79.9781 539.796 79.2508C537.592 78.6164 535.623 76.3414 535.126 74.05C536.526 75.9367 538.773 77.1563 541.3 77.1563C543.416 77.1563 545.145 75.5484 546.982 73.8477C547.523 73.3391 548.387 72.5352 549.066 72.032ZM538.237 81.6352C538.5 81.7391 538.757 81.8648 539.025 81.9414C541.934 82.7781 543.389 82.8 549 82.8H563C568.611 82.8 570.066 82.7781 572.975 81.9414C573.243 81.8648 573.5 81.7391 573.762 81.6352C572.012 85.4906 570.148 86.8031 569.147 87.4977C568.666 87.8258 568.162 88.1266 567.681 88.4164C565.942 89.4391 563.58 90.8391 563.52 93.8797C563.191 94.4484 561.48 95.4 560.2 95.4H551.8C550.52 95.4 548.809 94.4484 548.48 93.8797C548.42 90.8391 546.058 89.4391 544.319 88.4164C543.837 88.1266 543.334 87.8258 542.853 87.4977C541.852 86.8031 539.987 85.4906 538.237 81.6352Z" fill="white"/>
<defs>
<filter id="filter0_d_6_32" x="0" y="0" width="777" height="199" filterUnits="userSpaceOnUse" color-interpolation-filters="sRGB">
<feFlood flood-opacity="0" result="BackgroundImageFix"/>
<feColorMatrix in="SourceAlpha" type="matrix" values="0 0 0 0 0 0 0 0 0 0 0 0 0 0 0 0 0 0 127 0" result="hardAlpha"/>
<feOffset dy="4"/>
<feGaussianBlur stdDeviation="2"/>
<feComposite in2="hardAlpha" operator="out"/>
<feColorMatrix type="matrix" values="0 0 0 0 0 0 0 0 0 0 0 0 0 0 0 0 0 0 0.25 0"/>
<feBlend mode="normal" in2="BackgroundImageFix" result="effect1_dropShadow_6_32"/>
<feBlend mode="normal" in="SourceGraphic" in2="effect1_dropShadow_6_32" result="shape"/>
</filter>
<clipPath id="clip0_6_32">
<rect width="70" height="70" fill="white" transform="translate(354 93)"/>
</clipPath>
</defs>
</svg>
