<svg width="777" height="228" viewBox="0 0 777 228" fill="none" xmlns="http://www.w3.org/2000/svg">
<g filter="url(#filter0_d_6_32)">
<circle cx="710.5" cy="128.5" r="62.5" fill="#4287F5"/>
<path d="M453 128.5C453 163.018 425.018 191 390.5 191C355.982 191 328 163.018 328 128.5C328 93.9822 355.982 66 390.5 66C425.018 66 453 93.9822 453 128.5Z" fill="#4287F5"/>
<circle cx="554.5" cy="62.5" r="62.5" fill="#4287F5"/>
<path d="M129 128.5C129 163.018 101.018 191 66.5 191C31.9822 191 4 163.018 4 128.5C4 93.9822 31.9822 66 66.5 66C101.018 66 129 93.9822 129 128.5Z" fill="#4287F5"/>
<circle cx="226.5" cy="62.5" r="62.5" fill="#4287F5"/>
<rect x="237.5" y="41" width="175" height="30" transform="rotate(30 237.5 41)" fill="#4287F5"/>
<rect x="565.5" y="41" width="175" height="30" transform="rotate(30 565.5 41)" fill="#4287F5"/>
<rect x="389" y="128.5" width="175" height="30" transform="rotate(-30 389 128.5)" fill="#4287F5"/>
<rect x="61" y="128.5" width="175" height="30" transform="rotate(-30 61 128.5)" fill="#4287F5"/>
</g>
<path d="M71.3599 85C75.9841 95.1829 54.7811 101.471 52.8105 109.954C51.0042 117.749 65.4088 126.807 65.422 126.807C63.2347 123.581 61.6254 120.925 59.4315 115.905C55.7203 107.416 82.0336 99.7337 71.3599 85ZM85.4427 99.1023C85.4427 99.1023 66.8408 100.24 65.8949 111.554C65.4745 116.593 70.7884 119.243 70.9395 122.906C71.0643 125.9 67.7866 128.407 67.7866 128.407C67.7866 128.407 73.7508 127.326 75.6162 122.756C77.6853 117.687 71.5832 114.261 72.2006 110.204C72.7918 106.322 85.4427 99.1023 85.4427 99.1023ZM56.2261 125.257C56.2261 125.257 39.2006 125.025 39.2006 129.607C39.2006 134.396 61.4875 134.752 77.4029 131.808C77.4029 131.808 81.633 129.038 82.7627 128.007C72.332 130.032 48.5541 130.257 48.5541 128.507C48.5541 126.894 56.2261 125.257 56.2261 125.257ZM88.9634 125.257C87.295 125.382 85.4952 125.994 83.8662 127.107C87.7022 126.319 90.9602 128.582 90.9602 131.158C90.9602 136.958 82.1322 142.409 82.1322 142.409C82.1322 142.409 95.7946 140.934 95.7946 131.408C95.7946 127.082 92.6352 124.982 88.9634 125.257ZM52.1274 134.158C49.5131 134.158 45.6115 136.108 45.6115 137.959C45.6115 141.678 65.2643 144.541 79.8201 139.109L74.7755 136.158C64.9096 139.165 46.7412 138.184 52.1274 134.158ZM54.5446 142.509C50.9648 142.509 48.6067 144.566 48.6067 146.11C48.6067 150.886 69.9871 151.367 78.4538 146.51L73.0939 143.26C66.7685 145.804 50.8925 146.191 54.5446 142.509ZM42.6162 146.81C36.7834 146.698 33 149.192 33 151.261C33 162.263 92.6943 161.756 92.6943 150.511C92.6943 148.642 90.4281 147.735 89.5939 147.31C94.4743 158.062 40.7245 157.206 40.7245 150.861C40.7245 149.417 44.6787 148.035 48.3439 148.71L45.2436 147.01C44.3306 146.879 43.4504 146.829 42.6162 146.81ZM99 154.211C89.9224 162.4 66.9196 165.369 43.7723 160.312C66.913 169.326 98.8883 164.269 99 154.211Z" fill="white"/>
<path d="M46.408 213.864C46.408 214.931 46.2907 215.923 46.056 216.84C45.8427 217.757 45.448 218.568 44.872 219.272C44.3173 219.955 43.56 220.499 42.6 220.904C41.6613 221.288 40.4773 221.48 39.048 221.48C38.3227 221.48 37.6507 221.416 37.032 221.288C36.4347 221.181 35.8907 221.043 35.4 220.872C34.9093 220.68 34.4827 220.488 34.12 220.296C33.7573 220.083 33.4693 219.88 33.256 219.688L34.472 217.224C34.92 217.544 35.496 217.885 36.2 218.248C36.9253 218.589 37.8213 218.76 38.888 218.76C40.424 218.76 41.544 218.376 42.248 217.608C42.952 216.819 43.304 215.475 43.304 213.576V198.824H46.408V213.864ZM57.192 218.856C57.896 218.856 58.5147 218.845 59.048 218.824C59.6027 218.781 60.0613 218.717 60.424 218.632V213.672C60.2107 213.565 59.8587 213.48 59.368 213.416C58.8987 213.331 58.3227 213.288 57.64 213.288C57.192 213.288 56.712 213.32 56.2 213.384C55.7093 213.448 55.2507 213.587 54.824 213.8C54.4187 213.992 54.0773 214.269 53.8 214.632C53.5227 214.973 53.384 215.432 53.384 216.008C53.384 217.075 53.7253 217.821 54.408 218.248C55.0907 218.653 56.0187 218.856 57.192 218.856ZM56.936 203.944C58.1307 203.944 59.1333 204.104 59.944 204.424C60.776 204.723 61.4373 205.16 61.928 205.736C62.44 206.291 62.8027 206.963 63.016 207.752C63.2293 208.52 63.336 209.373 63.336 210.312V220.712C63.08 220.755 62.7173 220.819 62.248 220.904C61.8 220.968 61.288 221.032 60.712 221.096C60.136 221.16 59.5067 221.213 58.824 221.256C58.1627 221.32 57.5013 221.352 56.84 221.352C55.9013 221.352 55.0373 221.256 54.248 221.064C53.4587 220.872 52.776 220.573 52.2 220.168C51.624 219.741 51.176 219.187 50.856 218.504C50.536 217.821 50.376 217 50.376 216.04C50.376 215.123 50.5573 214.333 50.92 213.672C51.304 213.011 51.816 212.477 52.456 212.072C53.096 211.667 53.8427 211.368 54.696 211.176C55.5493 210.984 56.4453 210.888 57.384 210.888C57.6827 210.888 57.992 210.909 58.312 210.952C58.632 210.973 58.9307 211.016 59.208 211.08C59.5067 211.123 59.7627 211.165 59.976 211.208C60.1893 211.251 60.3387 211.283 60.424 211.304V210.472C60.424 209.981 60.3707 209.501 60.264 209.032C60.1573 208.541 59.9653 208.115 59.688 207.752C59.4107 207.368 59.0267 207.069 58.536 206.856C58.0667 206.621 57.448 206.504 56.68 206.504C55.6987 206.504 54.8347 206.579 54.088 206.728C53.3627 206.856 52.8187 206.995 52.456 207.144L52.104 204.68C52.488 204.509 53.128 204.349 54.024 204.2C54.92 204.029 55.8907 203.944 56.936 203.944ZM80.802 204.36C79.97 207.475 78.9887 210.461 77.858 213.32C76.7487 216.179 75.6713 218.739 74.626 221H71.938C70.8927 218.739 69.8047 216.179 68.674 213.32C67.5647 210.461 66.594 207.475 65.762 204.36H68.962C69.218 205.405 69.5167 206.525 69.858 207.72C70.2207 208.893 70.594 210.067 70.978 211.24C71.3833 212.392 71.7887 213.512 72.194 214.6C72.5993 215.688 72.9833 216.659 73.346 217.512C73.7087 216.659 74.0927 215.688 74.498 214.6C74.9033 213.512 75.298 212.392 75.682 211.24C76.0873 210.067 76.4607 208.893 76.802 207.72C77.1647 206.525 77.474 205.405 77.73 204.36H80.802ZM89.5045 218.856C90.2085 218.856 90.8272 218.845 91.3605 218.824C91.9152 218.781 92.3738 218.717 92.7365 218.632V213.672C92.5232 213.565 92.1712 213.48 91.6805 213.416C91.2112 213.331 90.6352 213.288 89.9525 213.288C89.5045 213.288 89.0245 213.32 88.5125 213.384C88.0218 213.448 87.5632 213.587 87.1365 213.8C86.7312 213.992 86.3898 214.269 86.1125 214.632C85.8352 214.973 85.6965 215.432 85.6965 216.008C85.6965 217.075 86.0378 217.821 86.7205 218.248C87.4032 218.653 88.3312 218.856 89.5045 218.856ZM89.2485 203.944C90.4432 203.944 91.4458 204.104 92.2565 204.424C93.0885 204.723 93.7498 205.16 94.2405 205.736C94.7525 206.291 95.1152 206.963 95.3285 207.752C95.5418 208.52 95.6485 209.373 95.6485 210.312V220.712C95.3925 220.755 95.0298 220.819 94.5605 220.904C94.1125 220.968 93.6005 221.032 93.0245 221.096C92.4485 221.16 91.8192 221.213 91.1365 221.256C90.4752 221.32 89.8138 221.352 89.1525 221.352C88.2138 221.352 87.3498 221.256 86.5605 221.064C85.7712 220.872 85.0885 220.573 84.5125 220.168C83.9365 219.741 83.4885 219.187 83.1685 218.504C82.8485 217.821 82.6885 217 82.6885 216.04C82.6885 215.123 82.8698 214.333 83.2325 213.672C83.6165 213.011 84.1285 212.477 84.7685 212.072C85.4085 211.667 86.1552 211.368 87.0085 211.176C87.8618 210.984 88.7578 210.888 89.6965 210.888C89.9952 210.888 90.3045 210.909 90.6245 210.952C90.9445 210.973 91.2432 211.016 91.5205 211.08C91.8192 211.123 92.0752 211.165 92.2885 211.208C92.5018 211.251 92.6512 211.283 92.7365 211.304V210.472C92.7365 209.981 92.6832 209.501 92.5765 209.032C92.4698 208.541 92.2778 208.115 92.0005 207.752C91.7232 207.368 91.3392 207.069 90.8485 206.856C90.3792 206.621 89.7605 206.504 88.9925 206.504C88.0112 206.504 87.1472 206.579 86.4005 206.728C85.6752 206.856 85.1312 206.995 84.7685 207.144L84.4165 204.68C84.8005 204.509 85.4405 204.349 86.3365 204.2C87.2325 204.029 88.2032 203.944 89.2485 203.944Z" fill="#4287F5"/>
<path d="M351.904 218.792C355.147 218.792 356.768 217.683 356.768 215.464C356.768 214.781 356.619 214.205 356.32 213.736C356.043 213.245 355.659 212.829 355.168 212.488C354.677 212.125 354.112 211.816 353.472 211.56C352.853 211.304 352.192 211.048 351.488 210.792C350.677 210.515 349.909 210.205 349.184 209.864C348.459 209.501 347.829 209.085 347.296 208.616C346.763 208.125 346.336 207.549 346.016 206.888C345.717 206.227 345.568 205.427 345.568 204.488C345.568 202.547 346.229 201.032 347.552 199.944C348.875 198.856 350.699 198.312 353.024 198.312C354.368 198.312 355.584 198.461 356.672 198.76C357.781 199.037 358.592 199.347 359.104 199.688L358.112 202.216C357.664 201.939 356.992 201.672 356.096 201.416C355.221 201.139 354.197 201 353.024 201C352.427 201 351.872 201.064 351.36 201.192C350.848 201.32 350.4 201.512 350.016 201.768C349.632 202.024 349.323 202.355 349.088 202.76C348.875 203.144 348.768 203.603 348.768 204.136C348.768 204.733 348.885 205.235 349.12 205.64C349.355 206.045 349.685 206.408 350.112 206.728C350.539 207.027 351.029 207.304 351.584 207.56C352.16 207.816 352.789 208.072 353.472 208.328C354.432 208.712 355.307 209.096 356.096 209.48C356.907 209.864 357.6 210.323 358.176 210.856C358.773 211.389 359.232 212.029 359.552 212.776C359.872 213.501 360.032 214.387 360.032 215.432C360.032 217.373 359.317 218.867 357.888 219.912C356.48 220.957 354.485 221.48 351.904 221.48C351.029 221.48 350.219 221.416 349.472 221.288C348.747 221.181 348.096 221.053 347.52 220.904C346.944 220.733 346.443 220.563 346.016 220.392C345.611 220.2 345.291 220.04 345.056 219.912L345.984 217.352C346.475 217.629 347.221 217.939 348.224 218.28C349.227 218.621 350.453 218.792 351.904 218.792ZM375.143 212.712C375.143 210.771 374.663 209.277 373.703 208.232C372.743 207.187 371.463 206.664 369.863 206.664C368.967 206.664 368.263 206.696 367.751 206.76C367.261 206.824 366.866 206.899 366.567 206.984V217.48C366.93 217.779 367.453 218.067 368.135 218.344C368.818 218.621 369.565 218.76 370.375 218.76C371.229 218.76 371.954 218.611 372.551 218.312C373.17 217.992 373.671 217.565 374.055 217.032C374.439 216.477 374.717 215.837 374.887 215.112C375.058 214.365 375.143 213.565 375.143 212.712ZM378.247 212.712C378.247 213.971 378.077 215.133 377.735 216.2C377.415 217.267 376.935 218.184 376.295 218.952C375.655 219.72 374.866 220.317 373.927 220.744C373.01 221.171 371.954 221.384 370.759 221.384C369.799 221.384 368.946 221.256 368.199 221C367.474 220.744 366.93 220.499 366.567 220.264V226.92H363.591V204.872C364.295 204.701 365.17 204.52 366.215 204.328C367.282 204.115 368.509 204.008 369.895 204.008C371.175 204.008 372.327 204.211 373.351 204.616C374.375 205.021 375.25 205.597 375.975 206.344C376.701 207.091 377.255 208.008 377.639 209.096C378.045 210.163 378.247 211.368 378.247 212.712ZM388.579 204.008C388.835 204.008 389.123 204.029 389.443 204.072C389.784 204.093 390.115 204.136 390.435 204.2C390.755 204.243 391.043 204.296 391.299 204.36C391.576 204.403 391.779 204.445 391.907 204.488L391.395 207.08C391.16 206.995 390.766 206.899 390.211 206.792C389.678 206.664 388.984 206.6 388.131 206.6C387.576 206.6 387.022 206.664 386.467 206.792C385.934 206.899 385.582 206.973 385.411 207.016V221H382.435V205.064C383.139 204.808 384.014 204.573 385.059 204.36C386.104 204.125 387.278 204.008 388.579 204.008ZM397.755 221H394.779V204.36H397.755V221ZM396.251 201.352C395.717 201.352 395.259 201.181 394.875 200.84C394.512 200.477 394.331 199.997 394.331 199.4C394.331 198.803 394.512 198.333 394.875 197.992C395.259 197.629 395.717 197.448 396.251 197.448C396.784 197.448 397.232 197.629 397.595 197.992C397.979 198.333 398.171 198.803 398.171 199.4C398.171 199.997 397.979 200.477 397.595 200.84C397.232 201.181 396.784 201.352 396.251 201.352ZM402.873 204.84C403.555 204.669 404.462 204.488 405.593 204.296C406.723 204.104 408.025 204.008 409.497 204.008C410.819 204.008 411.918 204.2 412.793 204.584C413.667 204.947 414.361 205.469 414.873 206.152C415.406 206.813 415.779 207.613 415.993 208.552C416.206 209.491 416.312 210.525 416.312 211.656V221H413.337V212.296C413.337 211.272 413.262 210.397 413.113 209.672C412.985 208.947 412.761 208.36 412.441 207.912C412.121 207.464 411.694 207.144 411.161 206.952C410.627 206.739 409.966 206.632 409.177 206.632C408.857 206.632 408.526 206.643 408.185 206.664C407.843 206.685 407.513 206.717 407.193 206.76C406.894 206.781 406.617 206.813 406.361 206.856C406.126 206.899 405.955 206.931 405.849 206.952V221H402.873V204.84ZM431.68 219.336C431.424 219.507 430.922 219.731 430.176 220.008C429.45 220.264 428.597 220.392 427.616 220.392C426.613 220.392 425.664 220.232 424.768 219.912C423.893 219.592 423.125 219.101 422.464 218.44C421.802 217.757 421.28 216.915 420.896 215.912C420.512 214.909 420.32 213.715 420.32 212.328C420.32 211.112 420.501 210.003 420.864 209C421.226 207.976 421.749 207.101 422.432 206.376C423.136 205.629 423.989 205.053 424.992 204.648C425.994 204.221 427.125 204.008 428.384 204.008C429.77 204.008 430.976 204.115 432 204.328C433.045 204.52 433.92 204.701 434.624 204.872V219.72C434.624 222.28 433.962 224.136 432.64 225.288C431.317 226.44 429.312 227.016 426.624 227.016C425.578 227.016 424.586 226.931 423.648 226.76C422.73 226.589 421.93 226.387 421.248 226.152L421.792 223.56C422.389 223.795 423.114 223.997 423.968 224.168C424.842 224.36 425.749 224.456 426.688 224.456C428.458 224.456 429.728 224.104 430.496 223.4C431.285 222.696 431.68 221.576 431.68 220.04V219.336ZM431.648 206.984C431.349 206.899 430.944 206.824 430.432 206.76C429.941 206.675 429.269 206.632 428.416 206.632C426.816 206.632 425.578 207.155 424.704 208.2C423.85 209.245 423.424 210.632 423.424 212.36C423.424 213.32 423.541 214.141 423.776 214.824C424.032 215.507 424.362 216.072 424.768 216.52C425.194 216.968 425.674 217.299 426.208 217.512C426.762 217.725 427.328 217.832 427.904 217.832C428.693 217.832 429.418 217.725 430.08 217.512C430.741 217.277 431.264 217.011 431.648 216.712V206.984Z" fill="#4287F5"/>
<path d="M706.554 210.088H709.658V220.456C709.402 220.541 709.028 220.637 708.538 220.744C708.068 220.851 707.514 220.957 706.874 221.064C706.255 221.171 705.572 221.256 704.826 221.32C704.079 221.405 703.322 221.448 702.554 221.448C700.996 221.448 699.578 221.192 698.298 220.68C697.018 220.168 695.919 219.421 695.002 218.44C694.084 217.459 693.37 216.253 692.858 214.824C692.367 213.395 692.122 211.752 692.122 209.896C692.122 208.04 692.399 206.397 692.954 204.968C693.53 203.517 694.298 202.301 695.258 201.32C696.218 200.339 697.338 199.592 698.618 199.08C699.919 198.568 701.306 198.312 702.778 198.312C703.78 198.312 704.666 198.376 705.434 198.504C706.223 198.632 706.895 198.781 707.45 198.952C708.004 199.123 708.452 199.293 708.794 199.464C709.156 199.635 709.402 199.763 709.53 199.848L708.538 202.44C707.919 202.035 707.098 201.704 706.074 201.448C705.05 201.171 704.004 201.032 702.938 201.032C701.807 201.032 700.772 201.235 699.834 201.64C698.916 202.045 698.127 202.632 697.466 203.4C696.826 204.168 696.324 205.107 695.962 206.216C695.599 207.304 695.418 208.531 695.418 209.896C695.418 211.219 695.567 212.424 695.866 213.512C696.186 214.6 696.655 215.539 697.274 216.328C697.914 217.096 698.692 217.693 699.61 218.12C700.548 218.547 701.647 218.76 702.906 218.76C703.802 218.76 704.559 218.717 705.178 218.632C705.818 218.525 706.276 218.429 706.554 218.344V210.088ZM717.302 221H714.326V204.36H717.302V221ZM715.798 201.352C715.264 201.352 714.806 201.181 714.422 200.84C714.059 200.477 713.878 199.997 713.878 199.4C713.878 198.803 714.059 198.333 714.422 197.992C714.806 197.629 715.264 197.448 715.798 197.448C716.331 197.448 716.779 197.629 717.142 197.992C717.526 198.333 717.718 198.803 717.718 199.4C717.718 199.997 717.526 200.477 717.142 200.84C716.779 201.181 716.331 201.352 715.798 201.352ZM725.203 204.36H731.507V206.856H725.203V214.536C725.203 215.368 725.267 216.061 725.395 216.616C725.523 217.149 725.715 217.576 725.971 217.896C726.227 218.195 726.547 218.408 726.931 218.536C727.315 218.664 727.763 218.728 728.275 218.728C729.171 218.728 729.886 218.632 730.419 218.44C730.974 218.227 731.358 218.077 731.571 217.992L732.147 220.456C731.849 220.605 731.326 220.787 730.579 221C729.833 221.235 728.979 221.352 728.019 221.352C726.889 221.352 725.95 221.213 725.203 220.936C724.478 220.637 723.891 220.2 723.443 219.624C722.995 219.048 722.675 218.344 722.483 217.512C722.313 216.659 722.227 215.677 722.227 214.568V199.72L725.203 199.208V204.36Z" fill="#4287F5"/>
<path d="M165.767 154.928C165.553 154.416 165.265 153.765 164.903 152.976C164.561 152.187 164.188 151.333 163.783 150.416C163.377 149.499 162.94 148.56 162.47 147.6C162.023 146.619 161.596 145.701 161.191 144.848C160.785 143.973 160.401 143.195 160.039 142.512C159.697 141.829 159.42 141.307 159.207 140.944C158.972 143.461 158.78 146.192 158.631 149.136C158.481 152.059 158.353 155.013 158.247 158H155.207C155.292 156.08 155.388 154.149 155.495 152.208C155.601 150.245 155.719 148.325 155.847 146.448C155.996 144.549 156.145 142.704 156.295 140.912C156.465 139.12 156.647 137.424 156.839 135.824H159.559C160.135 136.763 160.753 137.872 161.415 139.152C162.076 140.432 162.737 141.776 163.399 143.184C164.06 144.571 164.7 145.968 165.319 147.376C165.937 148.763 166.503 150.032 167.015 151.184C167.527 150.032 168.092 148.763 168.711 147.376C169.329 145.968 169.969 144.571 170.631 143.184C171.292 141.776 171.953 140.432 172.615 139.152C173.276 137.872 173.895 136.763 174.471 135.824H177.191C177.916 142.971 178.46 150.363 178.823 158H175.783C175.676 155.013 175.548 152.059 175.399 149.136C175.249 146.192 175.057 143.461 174.823 140.944C174.609 141.307 174.321 141.829 173.959 142.512C173.617 143.195 173.244 143.973 172.839 144.848C172.433 145.701 171.996 146.619 171.527 147.6C171.079 148.56 170.652 149.499 170.247 150.416C169.841 151.333 169.457 152.187 169.095 152.976C168.753 153.765 168.476 154.416 168.263 154.928H165.767ZM198.186 149.68C198.186 151.003 197.994 152.197 197.61 153.264C197.226 154.331 196.682 155.248 195.978 156.016C195.295 156.784 194.474 157.381 193.514 157.808C192.554 158.213 191.508 158.416 190.378 158.416C189.247 158.416 188.202 158.213 187.242 157.808C186.282 157.381 185.45 156.784 184.746 156.016C184.063 155.248 183.53 154.331 183.146 153.264C182.762 152.197 182.57 151.003 182.57 149.68C182.57 148.379 182.762 147.195 183.146 146.128C183.53 145.04 184.063 144.112 184.746 143.344C185.45 142.576 186.282 141.989 187.242 141.584C188.202 141.157 189.247 140.944 190.378 140.944C191.508 140.944 192.554 141.157 193.514 141.584C194.474 141.989 195.295 142.576 195.978 143.344C196.682 144.112 197.226 145.04 197.61 146.128C197.994 147.195 198.186 148.379 198.186 149.68ZM195.082 149.68C195.082 147.803 194.655 146.32 193.802 145.232C192.97 144.123 191.828 143.568 190.378 143.568C188.927 143.568 187.775 144.123 186.922 145.232C186.09 146.32 185.674 147.803 185.674 149.68C185.674 151.557 186.09 153.051 186.922 154.16C187.775 155.248 188.927 155.792 190.378 155.792C191.828 155.792 192.97 155.248 193.802 154.16C194.655 153.051 195.082 151.557 195.082 149.68ZM202.373 141.84C203.055 141.669 203.962 141.488 205.093 141.296C206.223 141.104 207.525 141.008 208.997 141.008C210.319 141.008 211.418 141.2 212.293 141.584C213.167 141.947 213.861 142.469 214.373 143.152C214.906 143.813 215.279 144.613 215.493 145.552C215.706 146.491 215.812 147.525 215.812 148.656V158H212.837V149.296C212.837 148.272 212.762 147.397 212.613 146.672C212.485 145.947 212.261 145.36 211.941 144.912C211.621 144.464 211.194 144.144 210.661 143.952C210.127 143.739 209.466 143.632 208.677 143.632C208.357 143.632 208.026 143.643 207.685 143.664C207.343 143.685 207.013 143.717 206.693 143.76C206.394 143.781 206.117 143.813 205.861 143.856C205.626 143.899 205.455 143.931 205.349 143.952V158H202.373V141.84ZM231.18 156.336C230.924 156.507 230.422 156.731 229.676 157.008C228.95 157.264 228.097 157.392 227.116 157.392C226.113 157.392 225.164 157.232 224.268 156.912C223.393 156.592 222.625 156.101 221.964 155.44C221.302 154.757 220.78 153.915 220.396 152.912C220.012 151.909 219.82 150.715 219.82 149.328C219.82 148.112 220.001 147.003 220.364 146C220.726 144.976 221.249 144.101 221.932 143.376C222.636 142.629 223.489 142.053 224.492 141.648C225.494 141.221 226.625 141.008 227.884 141.008C229.27 141.008 230.476 141.115 231.5 141.328C232.545 141.52 233.42 141.701 234.124 141.872V156.72C234.124 159.28 233.462 161.136 232.14 162.288C230.817 163.44 228.812 164.016 226.124 164.016C225.078 164.016 224.086 163.931 223.148 163.76C222.23 163.589 221.43 163.387 220.748 163.152L221.292 160.56C221.889 160.795 222.614 160.997 223.468 161.168C224.342 161.36 225.249 161.456 226.188 161.456C227.958 161.456 229.228 161.104 229.996 160.4C230.785 159.696 231.18 158.576 231.18 157.04V156.336ZM231.148 143.984C230.849 143.899 230.444 143.824 229.932 143.76C229.441 143.675 228.769 143.632 227.916 143.632C226.316 143.632 225.078 144.155 224.204 145.2C223.35 146.245 222.924 147.632 222.924 149.36C222.924 150.32 223.041 151.141 223.276 151.824C223.532 152.507 223.862 153.072 224.268 153.52C224.694 153.968 225.174 154.299 225.708 154.512C226.262 154.725 226.828 154.832 227.404 154.832C228.193 154.832 228.918 154.725 229.58 154.512C230.241 154.277 230.764 154.011 231.148 153.712V143.984ZM253.936 149.68C253.936 151.003 253.744 152.197 253.36 153.264C252.976 154.331 252.432 155.248 251.728 156.016C251.045 156.784 250.224 157.381 249.264 157.808C248.304 158.213 247.258 158.416 246.128 158.416C244.997 158.416 243.952 158.213 242.992 157.808C242.032 157.381 241.2 156.784 240.496 156.016C239.813 155.248 239.28 154.331 238.896 153.264C238.512 152.197 238.32 151.003 238.32 149.68C238.32 148.379 238.512 147.195 238.896 146.128C239.28 145.04 239.813 144.112 240.496 143.344C241.2 142.576 242.032 141.989 242.992 141.584C243.952 141.157 244.997 140.944 246.128 140.944C247.258 140.944 248.304 141.157 249.264 141.584C250.224 141.989 251.045 142.576 251.728 143.344C252.432 144.112 252.976 145.04 253.36 146.128C253.744 147.195 253.936 148.379 253.936 149.68ZM250.832 149.68C250.832 147.803 250.405 146.32 249.552 145.232C248.72 144.123 247.578 143.568 246.128 143.568C244.677 143.568 243.525 144.123 242.672 145.232C241.84 146.32 241.424 147.803 241.424 149.68C241.424 151.557 241.84 153.051 242.672 154.16C243.525 155.248 244.677 155.792 246.128 155.792C247.578 155.792 248.72 155.248 249.552 154.16C250.405 153.051 250.832 151.557 250.832 149.68ZM276.523 146.896C276.523 148.816 276.224 150.491 275.627 151.92C275.029 153.328 274.187 154.501 273.099 155.44C272.011 156.357 270.709 157.051 269.195 157.52C267.68 157.968 266.016 158.192 264.203 158.192C263.307 158.192 262.315 158.149 261.227 158.064C260.16 158 259.189 157.861 258.315 157.648V136.144C259.189 135.931 260.16 135.792 261.227 135.728C262.315 135.643 263.307 135.6 264.203 135.6C266.016 135.6 267.68 135.835 269.195 136.304C270.709 136.752 272.011 137.445 273.099 138.384C274.187 139.301 275.029 140.475 275.627 141.904C276.224 143.312 276.523 144.976 276.523 146.896ZM264.459 155.472C267.403 155.472 269.6 154.725 271.051 153.232C272.501 151.717 273.227 149.605 273.227 146.896C273.227 144.187 272.501 142.085 271.051 140.592C269.6 139.077 267.403 138.32 264.459 138.32C263.584 138.32 262.901 138.331 262.411 138.352C261.941 138.373 261.611 138.395 261.419 138.416V155.376C261.611 155.397 261.941 155.419 262.411 155.44C262.901 155.461 263.584 155.472 264.459 155.472ZM287.111 158.192C286.663 158.192 286.172 158.181 285.639 158.16C285.127 158.139 284.604 158.107 284.071 158.064C283.559 158.021 283.047 157.968 282.535 157.904C282.023 157.84 281.554 157.755 281.127 157.648V136.144C281.554 136.037 282.023 135.952 282.535 135.888C283.047 135.824 283.559 135.771 284.071 135.728C284.604 135.685 285.127 135.653 285.639 135.632C286.151 135.611 286.631 135.6 287.079 135.6C288.359 135.6 289.554 135.696 290.663 135.888C291.794 136.08 292.764 136.411 293.575 136.88C294.407 137.328 295.058 137.925 295.527 138.672C295.996 139.419 296.231 140.336 296.231 141.424C296.231 142.64 295.943 143.643 295.367 144.432C294.791 145.2 294.023 145.776 293.063 146.16C294.364 146.544 295.399 147.152 296.167 147.984C296.935 148.816 297.319 149.989 297.319 151.504C297.319 153.723 296.498 155.397 294.855 156.528C293.234 157.637 290.652 158.192 287.111 158.192ZM284.199 147.664V155.472C284.434 155.493 284.711 155.515 285.031 155.536C285.308 155.557 285.628 155.579 285.991 155.6C286.375 155.6 286.812 155.6 287.303 155.6C288.22 155.6 289.084 155.547 289.895 155.44C290.727 155.312 291.452 155.099 292.071 154.8C292.69 154.501 293.18 154.085 293.543 153.552C293.927 153.019 294.119 152.347 294.119 151.536C294.119 150.811 293.98 150.203 293.703 149.712C293.426 149.2 293.02 148.795 292.487 148.496C291.975 148.197 291.356 147.984 290.631 147.856C289.906 147.728 289.095 147.664 288.199 147.664H284.199ZM284.199 145.168H287.463C288.231 145.168 288.956 145.115 289.639 145.008C290.322 144.901 290.908 144.709 291.399 144.432C291.911 144.155 292.306 143.792 292.583 143.344C292.882 142.896 293.031 142.331 293.031 141.648C293.031 141.008 292.882 140.475 292.583 140.048C292.284 139.6 291.868 139.248 291.335 138.992C290.823 138.715 290.215 138.512 289.511 138.384C288.807 138.256 288.06 138.192 287.271 138.192C286.482 138.192 285.863 138.203 285.415 138.224C284.967 138.245 284.562 138.277 284.199 138.32V145.168Z" fill="#4287F5"/>
<path d="M491.111 158.192C490.663 158.192 490.172 158.181 489.639 158.16C489.127 158.139 488.604 158.107 488.071 158.064C487.559 158.021 487.047 157.968 486.535 157.904C486.023 157.84 485.554 157.755 485.127 157.648V136.144C485.554 136.037 486.023 135.952 486.535 135.888C487.047 135.824 487.559 135.771 488.071 135.728C488.604 135.685 489.127 135.653 489.639 135.632C490.151 135.611 490.631 135.6 491.079 135.6C492.359 135.6 493.554 135.696 494.663 135.888C495.794 136.08 496.764 136.411 497.575 136.88C498.407 137.328 499.058 137.925 499.527 138.672C499.996 139.419 500.231 140.336 500.231 141.424C500.231 142.64 499.943 143.643 499.367 144.432C498.791 145.2 498.023 145.776 497.063 146.16C498.364 146.544 499.399 147.152 500.167 147.984C500.935 148.816 501.319 149.989 501.319 151.504C501.319 153.723 500.498 155.397 498.855 156.528C497.234 157.637 494.652 158.192 491.111 158.192ZM488.199 147.664V155.472C488.434 155.493 488.711 155.515 489.031 155.536C489.308 155.557 489.628 155.579 489.991 155.6C490.375 155.6 490.812 155.6 491.303 155.6C492.22 155.6 493.084 155.547 493.895 155.44C494.727 155.312 495.452 155.099 496.071 154.8C496.69 154.501 497.18 154.085 497.543 153.552C497.927 153.019 498.119 152.347 498.119 151.536C498.119 150.811 497.98 150.203 497.703 149.712C497.426 149.2 497.02 148.795 496.487 148.496C495.975 148.197 495.356 147.984 494.631 147.856C493.906 147.728 493.095 147.664 492.199 147.664H488.199ZM488.199 145.168H491.463C492.231 145.168 492.956 145.115 493.639 145.008C494.322 144.901 494.908 144.709 495.399 144.432C495.911 144.155 496.306 143.792 496.583 143.344C496.882 142.896 497.031 142.331 497.031 141.648C497.031 141.008 496.882 140.475 496.583 140.048C496.284 139.6 495.868 139.248 495.335 138.992C494.823 138.715 494.215 138.512 493.511 138.384C492.807 138.256 492.06 138.192 491.271 138.192C490.482 138.192 489.863 138.203 489.415 138.224C488.967 138.245 488.562 138.277 488.199 138.32V145.168ZM520.186 149.68C520.186 151.003 519.994 152.197 519.61 153.264C519.226 154.331 518.682 155.248 517.978 156.016C517.295 156.784 516.474 157.381 515.514 157.808C514.554 158.213 513.508 158.416 512.378 158.416C511.247 158.416 510.202 158.213 509.242 157.808C508.282 157.381 507.45 156.784 506.746 156.016C506.063 155.248 505.53 154.331 505.146 153.264C504.762 152.197 504.57 151.003 504.57 149.68C504.57 148.379 504.762 147.195 505.146 146.128C505.53 145.04 506.063 144.112 506.746 143.344C507.45 142.576 508.282 141.989 509.242 141.584C510.202 141.157 511.247 140.944 512.378 140.944C513.508 140.944 514.554 141.157 515.514 141.584C516.474 141.989 517.295 142.576 517.978 143.344C518.682 144.112 519.226 145.04 519.61 146.128C519.994 147.195 520.186 148.379 520.186 149.68ZM517.082 149.68C517.082 147.803 516.655 146.32 515.802 145.232C514.97 144.123 513.828 143.568 512.378 143.568C510.927 143.568 509.775 144.123 508.922 145.232C508.09 146.32 507.674 147.803 507.674 149.68C507.674 151.557 508.09 153.051 508.922 154.16C509.775 155.248 510.927 155.792 512.378 155.792C513.828 155.792 514.97 155.248 515.802 154.16C516.655 153.051 517.082 151.557 517.082 149.68ZM539.061 149.68C539.061 151.003 538.869 152.197 538.485 153.264C538.101 154.331 537.557 155.248 536.853 156.016C536.17 156.784 535.349 157.381 534.389 157.808C533.429 158.213 532.383 158.416 531.253 158.416C530.122 158.416 529.077 158.213 528.117 157.808C527.157 157.381 526.325 156.784 525.621 156.016C524.938 155.248 524.405 154.331 524.021 153.264C523.637 152.197 523.445 151.003 523.445 149.68C523.445 148.379 523.637 147.195 524.021 146.128C524.405 145.04 524.938 144.112 525.621 143.344C526.325 142.576 527.157 141.989 528.117 141.584C529.077 141.157 530.122 140.944 531.253 140.944C532.383 140.944 533.429 141.157 534.389 141.584C535.349 141.989 536.17 142.576 536.853 143.344C537.557 144.112 538.101 145.04 538.485 146.128C538.869 147.195 539.061 148.379 539.061 149.68ZM535.957 149.68C535.957 147.803 535.53 146.32 534.677 145.232C533.845 144.123 532.703 143.568 531.253 143.568C529.802 143.568 528.65 144.123 527.797 145.232C526.965 146.32 526.549 147.803 526.549 149.68C526.549 151.557 526.965 153.051 527.797 154.16C528.65 155.248 529.802 155.792 531.253 155.792C532.703 155.792 533.845 155.248 534.677 154.16C535.53 153.051 535.957 151.557 535.957 149.68ZM546.032 141.36H552.336V143.856H546.032V151.536C546.032 152.368 546.096 153.061 546.224 153.616C546.352 154.149 546.544 154.576 546.8 154.896C547.056 155.195 547.376 155.408 547.76 155.536C548.144 155.664 548.592 155.728 549.104 155.728C550 155.728 550.714 155.632 551.248 155.44C551.802 155.227 552.186 155.077 552.4 154.992L552.976 157.456C552.677 157.605 552.154 157.787 551.408 158C550.661 158.235 549.808 158.352 548.848 158.352C547.717 158.352 546.778 158.213 546.032 157.936C545.306 157.637 544.72 157.2 544.272 156.624C543.824 156.048 543.504 155.344 543.312 154.512C543.141 153.659 543.056 152.677 543.056 151.568V136.72L546.032 136.208V141.36ZM559.995 155.856C561.211 155.856 562.107 155.696 562.683 155.376C563.28 155.056 563.579 154.544 563.579 153.84C563.579 153.115 563.291 152.539 562.715 152.112C562.139 151.685 561.189 151.205 559.867 150.672C559.227 150.416 558.608 150.16 558.011 149.904C557.435 149.627 556.933 149.307 556.507 148.944C556.08 148.581 555.739 148.144 555.483 147.632C555.227 147.12 555.099 146.491 555.099 145.744C555.099 144.272 555.643 143.109 556.731 142.256C557.819 141.381 559.301 140.944 561.179 140.944C561.648 140.944 562.117 140.976 562.587 141.04C563.056 141.083 563.493 141.147 563.899 141.232C564.304 141.296 564.656 141.371 564.955 141.456C565.275 141.541 565.52 141.616 565.691 141.68L565.147 144.24C564.827 144.069 564.325 143.899 563.643 143.728C562.96 143.536 562.139 143.44 561.179 143.44C560.347 143.44 559.621 143.611 559.003 143.952C558.384 144.272 558.075 144.784 558.075 145.488C558.075 145.851 558.139 146.171 558.266 146.448C558.416 146.725 558.629 146.981 558.907 147.216C559.205 147.429 559.568 147.632 559.995 147.824C560.421 148.016 560.933 148.219 561.531 148.432C562.32 148.731 563.024 149.029 563.643 149.328C564.261 149.605 564.784 149.936 565.211 150.32C565.659 150.704 566 151.173 566.235 151.728C566.469 152.261 566.587 152.923 566.587 153.712C566.587 155.248 566.011 156.411 564.859 157.2C563.728 157.989 562.107 158.384 559.995 158.384C558.523 158.384 557.371 158.256 556.539 158C555.707 157.765 555.141 157.584 554.843 157.456L555.387 154.896C555.728 155.024 556.272 155.216 557.019 155.472C557.765 155.728 558.757 155.856 559.995 155.856ZM573.188 141.36H579.492V143.856H573.188V151.536C573.188 152.368 573.252 153.061 573.38 153.616C573.508 154.149 573.7 154.576 573.956 154.896C574.212 155.195 574.532 155.408 574.916 155.536C575.3 155.664 575.748 155.728 576.26 155.728C577.156 155.728 577.87 155.632 578.404 155.44C578.958 155.227 579.342 155.077 579.556 154.992L580.132 157.456C579.833 157.605 579.31 157.787 578.564 158C577.817 158.235 576.964 158.352 576.004 158.352C574.873 158.352 573.934 158.213 573.188 157.936C572.462 157.637 571.876 157.2 571.428 156.624C570.98 156.048 570.66 155.344 570.468 154.512C570.297 153.659 570.212 152.677 570.212 151.568V136.72L573.188 136.208V141.36ZM589.423 141.008C589.679 141.008 589.967 141.029 590.287 141.072C590.628 141.093 590.959 141.136 591.279 141.2C591.599 141.243 591.887 141.296 592.143 141.36C592.42 141.403 592.623 141.445 592.751 141.488L592.239 144.08C592.004 143.995 591.609 143.899 591.055 143.792C590.521 143.664 589.828 143.6 588.975 143.6C588.42 143.6 587.865 143.664 587.311 143.792C586.777 143.899 586.425 143.973 586.255 144.016V158H583.279V142.064C583.983 141.808 584.857 141.573 585.903 141.36C586.948 141.125 588.121 141.008 589.423 141.008ZM601.255 155.856C601.959 155.856 602.577 155.845 603.111 155.824C603.665 155.781 604.124 155.717 604.487 155.632V150.672C604.273 150.565 603.921 150.48 603.431 150.416C602.961 150.331 602.385 150.288 601.703 150.288C601.255 150.288 600.775 150.32 600.263 150.384C599.772 150.448 599.313 150.587 598.887 150.8C598.481 150.992 598.14 151.269 597.863 151.632C597.585 151.973 597.447 152.432 597.447 153.008C597.447 154.075 597.788 154.821 598.471 155.248C599.153 155.653 600.081 155.856 601.255 155.856ZM600.999 140.944C602.193 140.944 603.196 141.104 604.007 141.424C604.839 141.723 605.5 142.16 605.991 142.736C606.503 143.291 606.865 143.963 607.079 144.752C607.292 145.52 607.399 146.373 607.399 147.312V157.712C607.143 157.755 606.78 157.819 606.311 157.904C605.863 157.968 605.351 158.032 604.775 158.096C604.199 158.16 603.569 158.213 602.887 158.256C602.225 158.32 601.564 158.352 600.903 158.352C599.964 158.352 599.1 158.256 598.311 158.064C597.521 157.872 596.839 157.573 596.263 157.168C595.687 156.741 595.239 156.187 594.919 155.504C594.599 154.821 594.439 154 594.439 153.04C594.439 152.123 594.62 151.333 594.983 150.672C595.367 150.011 595.879 149.477 596.519 149.072C597.159 148.667 597.905 148.368 598.759 148.176C599.612 147.984 600.508 147.888 601.447 147.888C601.745 147.888 602.055 147.909 602.375 147.952C602.695 147.973 602.993 148.016 603.271 148.08C603.569 148.123 603.825 148.165 604.039 148.208C604.252 148.251 604.401 148.283 604.487 148.304V147.472C604.487 146.981 604.433 146.501 604.327 146.032C604.22 145.541 604.028 145.115 603.751 144.752C603.473 144.368 603.089 144.069 602.599 143.856C602.129 143.621 601.511 143.504 600.743 143.504C599.761 143.504 598.897 143.579 598.151 143.728C597.425 143.856 596.881 143.995 596.519 144.144L596.167 141.68C596.551 141.509 597.191 141.349 598.087 141.2C598.983 141.029 599.953 140.944 600.999 140.944ZM623.893 149.712C623.893 147.771 623.413 146.277 622.453 145.232C621.493 144.187 620.213 143.664 618.613 143.664C617.717 143.664 617.013 143.696 616.501 143.76C616.011 143.824 615.616 143.899 615.317 143.984V154.48C615.68 154.779 616.203 155.067 616.885 155.344C617.568 155.621 618.315 155.76 619.125 155.76C619.979 155.76 620.704 155.611 621.301 155.312C621.92 154.992 622.421 154.565 622.805 154.032C623.189 153.477 623.467 152.837 623.637 152.112C623.808 151.365 623.893 150.565 623.893 149.712ZM626.997 149.712C626.997 150.971 626.827 152.133 626.485 153.2C626.165 154.267 625.685 155.184 625.045 155.952C624.405 156.72 623.616 157.317 622.677 157.744C621.76 158.171 620.704 158.384 619.509 158.384C618.549 158.384 617.696 158.256 616.949 158C616.224 157.744 615.68 157.499 615.317 157.264V163.92H612.341V141.872C613.045 141.701 613.92 141.52 614.965 141.328C616.032 141.115 617.259 141.008 618.645 141.008C619.925 141.008 621.077 141.211 622.101 141.616C623.125 142.021 624 142.597 624.725 143.344C625.451 144.091 626.005 145.008 626.389 146.096C626.795 147.163 626.997 148.368 626.997 149.712Z" fill="#4287F5"/>
<path d="M225.781 31.1903L227.649 34.6991C228.069 35.3466 228.524 35.9197 229.06 36.4534C230.624 38.0175 232.11 39.6559 233.444 41.4103C236.609 45.5666 238.744 50.1822 240.269 55.1741C241.183 58.2234 241.68 61.3516 241.717 64.5147C241.87 73.9712 238.628 82.0912 232.092 88.8397C231.025 89.9072 229.883 90.8959 228.658 91.7753C228.01 91.7753 227.704 91.2787 227.437 90.8216C226.941 89.9837 226.637 89.0278 226.483 88.0762C226.254 86.9322 226.103 85.7881 226.177 84.6069V84.0731C226.125 83.9594 225.554 31.4594 225.781 31.1903Z" fill="white"/>
<path d="M225.781 31.0745C225.705 30.9213 225.628 31.0373 225.552 31.1116C225.589 31.8773 225.322 32.5598 224.904 33.2116C224.445 33.8591 223.837 34.3557 223.226 34.8895C219.836 37.8251 217.167 41.371 215.03 45.337C212.186 50.6745 210.72 56.3948 210.305 62.417C210.114 64.5891 210.992 72.2541 211.676 74.4657C213.544 80.337 216.9 85.2566 221.247 89.5266C222.314 90.5548 223.456 91.5085 224.637 92.4251C224.981 92.4251 225.018 92.1188 225.097 91.8913C225.247 91.4045 225.362 90.9074 225.44 90.4038L226.206 84.6857L225.781 31.0745Z" fill="white"/>
<path d="M227.649 94.0984C227.726 93.2234 228.146 92.4972 228.603 91.7731C228.144 91.5828 227.803 91.2044 227.536 90.7822C227.306 90.4016 227.116 89.9444 226.967 89.5244C226.433 87.9231 226.319 86.2431 226.166 84.6069V83.6159C225.976 83.7691 225.937 85.0641 225.937 85.2566C225.825 86.9859 225.596 88.7057 225.25 90.4038C225.136 91.0906 225.059 91.7753 224.637 92.3856C224.637 92.4622 224.637 92.5387 224.674 92.6525C225.361 94.6737 225.549 96.7322 225.665 98.83V99.5956C225.665 100.51 225.628 100.317 226.387 100.624C226.693 100.737 227.035 100.777 227.341 101.004C227.571 101.004 227.608 100.814 227.608 100.661L227.494 99.4031V95.8944C227.457 95.2819 227.571 94.6738 227.647 94.1006L227.649 94.0984Z" fill="white"/>
<g clip-path="url(#clip0_6_32)">
<path d="M415.2 101.365C414.304 103.514 413.156 105.55 411.781 107.429C408.779 104.415 405.209 102.027 401.276 100.406C397.343 98.7839 393.128 97.96 388.874 97.982C384.62 98.004 380.413 98.8713 376.498 100.534C372.582 102.196 369.036 104.62 366.066 107.665C363.096 110.71 360.76 114.315 359.196 118.271C357.631 122.227 356.868 126.454 356.952 130.707C357.036 134.96 357.964 139.154 359.683 143.045C361.402 146.936 363.877 150.446 366.965 153.372L368.151 154.419C372.677 158.233 378.169 160.72 384.021 161.605C389.873 162.491 395.856 161.741 401.307 159.437C406.759 157.134 411.467 153.368 414.911 148.554C418.355 143.741 420.401 138.069 420.821 132.166C421.696 123.996 419.297 113.656 415.201 101.366L415.2 101.365ZM371.53 153.558C371.188 153.98 370.729 154.291 370.211 154.452C369.693 154.613 369.138 154.617 368.618 154.463C368.097 154.309 367.634 154.003 367.287 153.586C366.94 153.169 366.724 152.658 366.668 152.118C366.611 151.578 366.716 151.033 366.969 150.553C367.222 150.073 367.612 149.678 368.089 149.419C368.567 149.161 369.11 149.049 369.65 149.099C370.191 149.15 370.704 149.359 371.126 149.701C371.691 150.159 372.05 150.823 372.126 151.546C372.202 152.269 371.987 152.993 371.53 153.558V153.558ZM415.068 143.948C407.148 154.498 390.238 150.938 379.396 151.45C379.396 151.45 377.474 151.563 375.539 151.88C375.539 151.88 376.269 151.57 377.202 151.217C384.816 148.567 388.415 148.057 393.04 145.677C401.748 141.25 410.362 131.555 412.152 121.477C408.839 131.172 398.779 139.509 389.622 142.895C383.346 145.208 372.008 147.461 372.008 147.461L371.551 147.216C363.837 143.466 363.599 126.759 377.628 121.371C383.771 119.005 389.648 120.304 396.282 118.721C403.366 117.038 411.562 111.731 414.897 104.805C418.627 115.885 423.121 133.227 415.063 143.955L415.068 143.948Z" fill="white"/>
</g>
<path d="M525 84.2635C525 88.5366 528.464 92 532.736 92H577.263C581.537 92 585 88.5362 585 84.2635V39.7367C585 35.4634 581.536 32 577.264 32H532.737C528.463 32 525 35.4638 525 39.7365V84.2633V84.2635Z" fill="white"/>
<path d="M549.881 58.5402V50.0434H557.36C558.072 50.0434 558.759 50.1027 559.421 50.2215C560.082 50.3401 560.667 50.552 561.176 50.8573C561.685 51.1627 562.092 51.5867 562.397 52.1293C562.702 52.6721 562.855 53.3675 562.855 54.2152C562.855 55.7417 562.397 56.8442 561.481 57.5225C560.565 58.201 559.395 58.5402 557.97 58.5402H549.881V58.5402ZM541.893 43.8359V80.1641H559.497C561.125 80.1641 562.711 79.9606 564.254 79.5535C565.798 79.1464 567.171 78.519 568.376 77.671C569.58 76.823 570.538 75.729 571.25 74.3893C571.963 73.0494 572.319 71.4636 572.319 69.632C572.319 67.3592 571.767 65.4174 570.665 63.8063C569.563 62.195 567.892 61.0672 565.653 60.4227C567.281 59.6427 568.511 58.6419 569.342 57.4208C570.173 56.1997 570.589 54.6734 570.589 52.8416C570.589 51.1456 570.309 49.7211 569.749 48.5677C569.19 47.4146 568.401 46.4902 567.383 45.7948C566.366 45.0995 565.145 44.5991 563.72 44.2939C562.295 43.9885 560.718 43.8359 558.988 43.8359H541.893V43.8359ZM549.881 73.9566V63.9842H558.581C560.311 63.9842 561.702 64.3827 562.753 65.18C563.805 65.9771 564.331 67.3084 564.331 69.174C564.331 70.1239 564.169 70.9039 563.847 71.5145C563.525 72.125 563.093 72.6085 562.55 72.9645C562.007 73.3208 561.379 73.5751 560.667 73.7279C559.955 73.8802 559.209 73.9566 558.428 73.9566H549.881V73.9566Z" fill="#4287F5"/>
<path d="M699.741 146.451C699.741 146.705 699.44 146.908 699.059 146.908C698.627 146.946 698.326 146.743 698.326 146.451C698.326 146.197 698.627 145.994 699.007 145.994C699.4 145.956 699.741 146.159 699.741 146.451ZM695.665 145.88C695.574 146.134 695.836 146.426 696.229 146.502C696.57 146.629 696.963 146.502 697.041 146.248C697.12 145.994 696.871 145.702 696.478 145.588C696.137 145.499 695.757 145.626 695.665 145.88ZM701.458 145.664C701.078 145.753 700.816 145.994 700.855 146.286C700.894 146.54 701.235 146.705 701.628 146.616C702.008 146.527 702.27 146.286 702.231 146.032C702.192 145.791 701.838 145.626 701.458 145.664ZM710.081 97.0156C691.904 97.0156 678 110.384 678 127.992C678 142.071 687.147 154.119 700.213 158.359C701.89 158.651 702.48 157.648 702.48 156.823C702.48 156.036 702.441 151.694 702.441 149.028C702.441 149.028 693.267 150.933 691.341 145.245C691.341 145.245 689.847 141.551 687.698 140.599C687.698 140.599 684.697 138.605 687.907 138.644C687.907 138.644 691.17 138.897 692.966 141.919C695.836 146.819 700.645 145.41 702.519 144.572C702.821 142.541 703.672 141.132 704.616 140.294C697.29 139.507 689.899 138.479 689.899 126.266C689.899 122.774 690.895 121.022 692.992 118.788C692.651 117.963 691.537 114.561 693.333 110.168C696.072 109.343 702.375 113.596 702.375 113.596C704.996 112.885 707.814 112.517 710.605 112.517C713.396 112.517 716.214 112.885 718.835 113.596C718.835 113.596 725.138 109.33 727.877 110.168C729.672 114.573 728.558 117.963 728.218 118.788C730.315 121.035 731.599 122.787 731.599 126.266C731.599 138.517 723.88 139.494 716.554 140.294C717.76 141.297 718.782 143.201 718.782 146.185C718.782 150.463 718.743 155.757 718.743 156.798C718.743 157.623 719.346 158.626 721.01 158.334C734.115 154.119 743 142.071 743 127.992C743 110.384 728.257 97.0156 710.081 97.0156ZM690.738 140.802C690.568 140.929 690.607 141.221 690.83 141.462C691.039 141.665 691.341 141.754 691.511 141.589C691.681 141.462 691.642 141.17 691.419 140.929C691.21 140.726 690.908 140.637 690.738 140.802ZM689.323 139.773C689.231 139.938 689.362 140.142 689.624 140.269C689.834 140.396 690.096 140.357 690.187 140.18C690.279 140.015 690.148 139.812 689.886 139.685C689.624 139.608 689.414 139.646 689.323 139.773ZM693.569 144.293C693.359 144.458 693.437 144.839 693.739 145.08C694.04 145.372 694.42 145.41 694.591 145.207C694.761 145.042 694.682 144.661 694.42 144.42C694.132 144.128 693.739 144.09 693.569 144.293ZM692.075 142.427C691.865 142.554 691.865 142.884 692.075 143.176C692.284 143.468 692.638 143.595 692.808 143.468C693.018 143.303 693.018 142.973 692.808 142.681C692.625 142.389 692.284 142.262 692.075 142.427Z" fill="white"/>
<defs>
<filter id="filter0_d_6_32" x="0" y="0" width="777" height="199" filterUnits="userSpaceOnUse" color-interpolation-filters="sRGB">
<feFlood flood-opacity="0" result="BackgroundImageFix"/>
<feColorMatrix in="SourceAlpha" type="matrix" values="0 0 0 0 0 0 0 0 0 0 0 0 0 0 0 0 0 0 127 0" result="hardAlpha"/>
<feOffset dy="4"/>
<feGaussianBlur stdDeviation="2"/>
<feComposite in2="hardAlpha" operator="out"/>
<feColorMatrix type="matrix" values="0 0 0 0 0 0 0 0 0 0 0 0 0 0 0 0 0 0 0.25 0"/>
<feBlend mode="normal" in2="BackgroundImageFix" result="effect1_dropShadow_6_32"/>
<feBlend mode="normal" in="SourceGraphic" in2="effect1_dropShadow_6_32" result="shape"/>
</filter>
<clipPath id="clip0_6_32">
<rect width="64" height="64" fill="white" transform="translate(357 98)"/>
</clipPath>
</defs>
</svg>
