<svg width="777" height="199" viewBox="0 0 777 199" fill="none" xmlns="http://www.w3.org/2000/svg">
<g filter="url(#filter0_d_4_8)">
<circle cx="710.5" cy="128.5" r="62.5" fill="#4287F5"/>
<path d="M453 128.5C453 163.018 425.018 191 390.5 191C355.982 191 328 163.018 328 128.5C328 93.9822 355.982 66 390.5 66C425.018 66 453 93.9822 453 128.5Z" fill="#4287F5"/>
<circle cx="554.5" cy="62.5" r="62.5" fill="#4287F5"/>
<path d="M129 128.5C129 163.018 101.018 191 66.5 191C31.9822 191 4 163.018 4 128.5C4 93.9822 31.9822 66 66.5 66C101.018 66 129 93.9822 129 128.5Z" fill="#4287F5"/>
<circle cx="226.5" cy="62.5" r="62.5" fill="#4287F5"/>
<rect x="237.5" y="41" width="175" height="30" transform="rotate(30 237.5 41)" fill="#4287F5"/>
<rect x="565.5" y="41" width="175" height="30" transform="rotate(30 565.5 41)" fill="#4287F5"/>
<rect x="389" y="128.5" width="175" height="30" transform="rotate(-30 389 128.5)" fill="#4287F5"/>
<rect x="61" y="128.5" width="175" height="30" transform="rotate(-30 61 128.5)" fill="#4287F5"/>
</g>
<defs>
<filter id="filter0_d_4_8" x="0" y="0" width="777" height="199" filterUnits="userSpaceOnUse" color-interpolation-filters="sRGB">
<feFlood flood-opacity="0" result="BackgroundImageFix"/>
<feColorMatrix in="SourceAlpha" type="matrix" values="0 0 0 0 0 0 0 0 0 0 0 0 0 0 0 0 0 0 127 0" result="hardAlpha"/>
<feOffset dy="4"/>
<feGaussianBlur stdDeviation="2"/>
<feComposite in2="hardAlpha" operator="out"/>
<feColorMatrix type="matrix" values="0 0 0 0 0 0 0 0 0 0 0 0 0 0 0 0 0 0 0.25 0"/>
<feBlend mode="normal" in2="BackgroundImageFix" result="effect1_dropShadow_4_8"/>
<feBlend mode="normal" in="SourceGraphic" in2="effect1_dropShadow_4_8" result="shape"/>
</filter>
</defs>
</svg>
